{"asset":{"version":"2.0","generator":"Unity 2021.3.22f1 glTFast 4.8.3","lastModified":"19-06-2023 11:55:15","assetVersion":"1.0","expiryToken":1},"nodes":[{"name":"tree_002(Clone)","mesh":0}],"extensionsRequired":["KHR_texture_transform"],"extensionsUsed":["KHR_texture_transform"],"buffers":[{"uri":"tree_002.bin","byteLength":832116}],"bufferViews":[{"buffer":0,"byteLength":144084},{"buffer":0,"byteLength":688032,"byteOffset":144084,"byteStride":48}],"accessors":[{"bufferView":1,"componentType":5126,"count":14334,"type":"VEC3","max":[4.687708,7.933561,1.704638],"min":[-2.64343452,-0.002553463,-1.96672773]},{"bufferView":1,"componentType":5126,"count":14334,"type":"VEC3","byteOffset":12},{"bufferView":1,"componentType":5126,"count":14334,"type":"VEC4","byteOffset":24},{"bufferView":1,"componentType":5126,"count":14334,"type":"VEC2","byteOffset":40},{"bufferView":0,"componentType":5123,"count":48336,"type":"SCALAR"},{"bufferView":0,"componentType":5123,"count":21600,"type":"SCALAR","byteOffset":96672},{"bufferView":0,"componentType":5123,"count":2106,"type":"SCALAR","byteOffset":139872}],"images":[{"name":"Copper_Architextures_Normal.png","uri":"Copper_Architextures_Normal.png","mimeType":"image/png"},{"name":"Copper_Architextures.jpg","uri":"Copper_Architextures.jpg","mimeType":"image/jpeg"},{"name":"CBP_SteelPanelGrayB_normal.png","uri":"CBP_SteelPanelGrayB_normal.png","mimeType":"image/png"},{"name":"CBP_SteelPanelGrayB_basecolor.png","uri":"CBP_SteelPanelGrayB_basecolor.png","mimeType":"image/png"}],"materials":[{"name":"tree_002_mat1","pbrMetallicRoughness":{"metallicFactor":0.093,"roughnessFactor":0.722,"baseColorTexture":{"index":1,"extensions":{"KHR_texture_transform":{"offset":[0,1],"scale":[1,-1]}}}},"normalTexture":{"index":0,"extensions":{"KHR_texture_transform":{"offset":[0,1],"scale":[1,-1]}}}},{"name":"tree_002_mat2","pbrMetallicRoughness":{"baseColorFactor":[0,0.306107968,1,1],"metallicFactor":0.653,"roughnessFactor":0.784999967},"emissiveFactor":[0,0.07853402,1]},{"name":"tree_002_mat3","pbrMetallicRoughness":{"baseColorFactor":[0.179245263,0.179245263,0.179245263,1],"metallicFactor":0.04,"roughnessFactor":0.89,"baseColorTexture":{"index":3,"extensions":{"KHR_texture_transform":{"offset":[0,1],"scale":[1,-1]}}}},"normalTexture":{"index":2,"extensions":{"KHR_texture_transform":{"offset":[0,1],"scale":[1,-1]}}}}],"meshes":[{"name":"tree_002","primitives":[{"attributes":{"POSITION":0,"NORMAL":1,"TANGENT":2,"TEXCOORD_0":3},"indices":4,"material":0},{"attributes":{"POSITION":0,"NORMAL":1,"TANGENT":2,"TEXCOORD_0":3},"indices":5,"material":1},{"attributes":{"POSITION":0,"NORMAL":1,"TANGENT":2,"TEXCOORD_0":3},"indices":6,"material":2}]}],"scene":0,"scenes":[{"name":"tree_002(Clone)","nodes":[0]}],"textures":[{"source":0},{"source":1},{"source":2},{"source":3}]}