{"asset":{"version":"2.0","generator":"Unity 2021.3.22f1 glTFast 4.8.3","lastModified":"07-07-2023 07:45:02","assetVersion":"1.0","expiryToken":1},"nodes":[{"name":"Plant02","mesh":0,"translation":[-9.319061,0.961547852,35.428894]},{"name":"Plant01 (1)","mesh":1,"translation":[-8.773979,1.68262672,36.06526]},{"name":"rock5","mesh":2,"translation":[-9.559406,1.20967865,36.74643]},{"name":"Pine03 (1)","mesh":3,"translation":[-9.22816849,1.20968151,36.3883667],"scale":[0.65528,0.65528,0.65528]},{"name":"Pine01 (1)","mesh":4,"translation":[-8.14889,1.68264294,35.31307]},{"name":"Pine02 (1)","mesh":5,"translation":[-9.100758,1.20967484,36.91219]},{"name":"Pine03","mesh":3,"translation":[-8.436867,1.68262672,36.3847733]},{"name":"Plant01","mesh":1,"translation":[-7.35413933,2.6822958,36.0792961]},{"name":"rock1 (1)","mesh":6,"translation":[-7.58184052,2.68229961,35.9293442]},{"name":"rock6","mesh":7,"translation":[-7.99428368,1.68263435,35.89845]},{"name":"rockM_wood","mesh":8,"translation":[-9.040001,0.210000038,36.57],"rotation":[0,0.192527115,0,0.981291652]},{"name":"rockS_wood","mesh":9,"translation":[-7.462261,1.68262672,36.0155373]},{"name":"rockL_wood","mesh":10,"translation":[-7.76137161,0.25,35.62],"scale":[1.4331,1.4331,1.4331]},{"name":"Woodland_Hill_07(Clone)","children":[0,1,2,3,4,5,6,7,8,9,10,11,12]}],"extensionsRequired":["KHR_texture_transform"],"extensionsUsed":["KHR_texture_transform"],"buffers":[{"uri":"Woodland_Hill_07.bin","byteLength":62972}],"bufferViews":[{"buffer":0,"byteLength":1392},{"buffer":0,"byteLength":7872,"byteOffset":1392,"byteStride":48},{"buffer":0,"byteLength":696,"byteOffset":9264},{"buffer":0,"byteLength":3936,"byteOffset":9960,"byteStride":48},{"buffer":0,"byteLength":150,"byteOffset":13896},{"buffer":0,"byteLength":1296,"byteOffset":14048,"byteStride":48},{"buffer":0,"byteLength":840,"byteOffset":15344},{"buffer":0,"byteLength":6624,"byteOffset":16184,"byteStride":48},{"buffer":0,"byteLength":840,"byteOffset":22808},{"buffer":0,"byteLength":6624,"byteOffset":23648,"byteStride":48},{"buffer":0,"byteLength":840,"byteOffset":30272},{"buffer":0,"byteLength":6624,"byteOffset":31112,"byteStride":48},{"buffer":0,"byteLength":234,"byteOffset":37736},{"buffer":0,"byteLength":1440,"byteOffset":37972,"byteStride":48},{"buffer":0,"byteLength":222,"byteOffset":39412},{"buffer":0,"byteLength":2064,"byteOffset":39636,"byteStride":48},{"buffer":0,"byteLength":744,"byteOffset":41700},{"buffer":0,"byteLength":6480,"byteOffset":42444,"byteStride":48},{"buffer":0,"byteLength":672,"byteOffset":48924},{"buffer":0,"byteLength":5568,"byteOffset":49596,"byteStride":48},{"buffer":0,"byteLength":798,"byteOffset":55164},{"buffer":0,"byteLength":7008,"byteOffset":55964,"byteStride":48}],"accessors":[{"bufferView":1,"componentType":5126,"count":164,"type":"VEC3","max":[0.220007986,0.165430948,0.235315353],"min":[-0.250359237,0,-0.25236842]},{"bufferView":1,"componentType":5126,"count":164,"type":"VEC3","byteOffset":12},{"bufferView":1,"componentType":5126,"count":164,"type":"VEC4","byteOffset":24},{"bufferView":1,"componentType":5126,"count":164,"type":"VEC2","byteOffset":40},{"bufferView":0,"componentType":5123,"count":696,"type":"SCALAR"},{"bufferView":3,"componentType":5126,"count":82,"type":"VEC3","max":[0.09613198,0.116219938,0.156106442],"min":[-0.179490358,0,-0.173442215]},{"bufferView":3,"componentType":5126,"count":82,"type":"VEC3","byteOffset":12},{"bufferView":3,"componentType":5126,"count":82,"type":"VEC4","byteOffset":24},{"bufferView":3,"componentType":5126,"count":82,"type":"VEC2","byteOffset":40},{"bufferView":2,"componentType":5123,"count":348,"type":"SCALAR"},{"bufferView":5,"componentType":5126,"count":27,"type":"VEC3","max":[0.36226508,0.33436808,0.361958265],"min":[-0.348273724,-0.0292440951,-0.304970264]},{"bufferView":5,"componentType":5126,"count":27,"type":"VEC3","byteOffset":12},{"bufferView":5,"componentType":5126,"count":27,"type":"VEC4","byteOffset":24},{"bufferView":5,"componentType":5126,"count":27,"type":"VEC2","byteOffset":40},{"bufferView":4,"componentType":5123,"count":75,"type":"SCALAR"},{"bufferView":7,"componentType":5126,"count":138,"type":"VEC3","max":[0.242252111,1.0523144,0.264515936],"min":[-0.258144855,-1.1920929E-07,-0.2572108]},{"bufferView":7,"componentType":5126,"count":138,"type":"VEC3","byteOffset":12},{"bufferView":7,"componentType":5126,"count":138,"type":"VEC4","byteOffset":24},{"bufferView":7,"componentType":5126,"count":138,"type":"VEC2","byteOffset":40},{"bufferView":6,"componentType":5123,"count":420,"type":"SCALAR"},{"bufferView":9,"componentType":5126,"count":138,"type":"VEC3","max":[0.305760443,1.09911633,0.3073563],"min":[-0.326451123,-1.1920929E-07,-0.329849422]},{"bufferView":9,"componentType":5126,"count":138,"type":"VEC3","byteOffset":12},{"bufferView":9,"componentType":5126,"count":138,"type":"VEC4","byteOffset":24},{"bufferView":9,"componentType":5126,"count":138,"type":"VEC2","byteOffset":40},{"bufferView":8,"componentType":5123,"count":420,"type":"SCALAR"},{"bufferView":11,"componentType":5126,"count":138,"type":"VEC3","max":[0.266107321,0.8635999,0.27189678],"min":[-0.264507771,-5.96046448E-08,-0.284521759]},{"bufferView":11,"componentType":5126,"count":138,"type":"VEC3","byteOffset":12},{"bufferView":11,"componentType":5126,"count":138,"type":"VEC4","byteOffset":24},{"bufferView":11,"componentType":5126,"count":138,"type":"VEC2","byteOffset":40},{"bufferView":10,"componentType":5123,"count":420,"type":"SCALAR"},{"bufferView":13,"componentType":5126,"count":30,"type":"VEC3","max":[0.2119031,0.0352250747,0.17071408],"min":[-0.212310076,-0.004794419,-0.230557323]},{"bufferView":13,"componentType":5126,"count":30,"type":"VEC3","byteOffset":12},{"bufferView":13,"componentType":5126,"count":30,"type":"VEC4","byteOffset":24},{"bufferView":13,"componentType":5126,"count":30,"type":"VEC2","byteOffset":40},{"bufferView":12,"componentType":5123,"count":117,"type":"SCALAR"},{"bufferView":15,"componentType":5126,"count":43,"type":"VEC3","max":[0.4046017,0.5540498,0.3990183],"min":[-0.410289824,0.00139689445,-0.33743763]},{"bufferView":15,"componentType":5126,"count":43,"type":"VEC3","byteOffset":12},{"bufferView":15,"componentType":5126,"count":43,"type":"VEC4","byteOffset":24},{"bufferView":15,"componentType":5126,"count":43,"type":"VEC2","byteOffset":40},{"bufferView":14,"componentType":5123,"count":111,"type":"SCALAR"},{"bufferView":17,"componentType":5126,"count":135,"type":"VEC3","max":[0.946814954,0.99969,0.6527515],"min":[-0.970009744,0.00148803,-0.629674256]},{"bufferView":17,"componentType":5126,"count":135,"type":"VEC3","byteOffset":12},{"bufferView":17,"componentType":5126,"count":135,"type":"VEC4","byteOffset":24},{"bufferView":17,"componentType":5126,"count":135,"type":"VEC2","byteOffset":40},{"bufferView":16,"componentType":5123,"count":330,"type":"SCALAR"},{"bufferView":16,"componentType":5123,"count":42,"type":"SCALAR","byteOffset":660},{"bufferView":19,"componentType":5126,"count":116,"type":"VEC3","max":[0.586959958,0.99969,0.5924746],"min":[-0.613251567,0.00148814917,-0.6042744]},{"bufferView":19,"componentType":5126,"count":116,"type":"VEC3","byteOffset":12},{"bufferView":19,"componentType":5126,"count":116,"type":"VEC4","byteOffset":24},{"bufferView":19,"componentType":5126,"count":116,"type":"VEC2","byteOffset":40},{"bufferView":18,"componentType":5123,"count":300,"type":"SCALAR"},{"bufferView":18,"componentType":5123,"count":36,"type":"SCALAR","byteOffset":600},{"bufferView":21,"componentType":5126,"count":146,"type":"VEC3","max":[1.021558,0.99969,1.013284],"min":[-1.02605891,0.0014873147,-0.965484142]},{"bufferView":21,"componentType":5126,"count":146,"type":"VEC3","byteOffset":12},{"bufferView":21,"componentType":5126,"count":146,"type":"VEC4","byteOffset":24},{"bufferView":21,"componentType":5126,"count":146,"type":"VEC2","byteOffset":40},{"bufferView":20,"componentType":5123,"count":354,"type":"SCALAR"},{"bufferView":20,"componentType":5123,"count":45,"type":"SCALAR","byteOffset":708}],"images":[{"name":"Plants02_D.jpg","uri":"Plants02_D.jpg","mimeType":"image/jpeg"},{"name":"Rocks_D.jpg","uri":"Rocks_D.jpg","mimeType":"image/jpeg"},{"name":"Plants01_D.jpg","uri":"Plants01_D.jpg","mimeType":"image/jpeg"},{"name":"Wood_rock_D.jpg","uri":"Wood_rock_D.jpg","mimeType":"image/jpeg"},{"name":"Grass2_D.jpg","uri":"Grass2_D.jpg","mimeType":"image/jpeg"}],"materials":[{"name":"Plants02","pbrMetallicRoughness":{"metallicFactor":0,"baseColorTexture":{"index":0,"extensions":{"KHR_texture_transform":{"offset":[0,1],"scale":[1,-1]}}}},"doubleSided":true},{"name":"Rocks01","pbrMetallicRoughness":{"metallicFactor":0,"baseColorTexture":{"index":1,"extensions":{"KHR_texture_transform":{"offset":[0,1],"scale":[1,-1]}}}},"doubleSided":true},{"name":"Plants01","pbrMetallicRoughness":{"metallicFactor":0,"baseColorTexture":{"index":2,"extensions":{"KHR_texture_transform":{"offset":[0,1],"scale":[1,-1]}}}},"doubleSided":true},{"name":"WoodRocks","pbrMetallicRoughness":{"metallicFactor":0,"baseColorTexture":{"index":3,"extensions":{"KHR_texture_transform":{"offset":[0,1],"scale":[1,-1]}}}},"doubleSided":true},{"name":"Grass02","pbrMetallicRoughness":{"metallicFactor":0,"baseColorTexture":{"index":4,"extensions":{"KHR_texture_transform":{"offset":[0,1],"scale":[1,-1]}}}},"doubleSided":true}],"meshes":[{"name":"Plant02","primitives":[{"attributes":{"POSITION":0,"NORMAL":1,"TANGENT":2,"TEXCOORD_0":3},"indices":4,"material":0}]},{"name":"Plant01","primitives":[{"attributes":{"POSITION":5,"NORMAL":6,"TANGENT":7,"TEXCOORD_0":8},"indices":9,"material":0}]},{"name":"rock5","primitives":[{"attributes":{"POSITION":10,"NORMAL":11,"TANGENT":12,"TEXCOORD_0":13},"indices":14,"material":1}]},{"name":"Pine03","primitives":[{"attributes":{"POSITION":15,"NORMAL":16,"TANGENT":17,"TEXCOORD_0":18},"indices":19,"material":2}]},{"name":"Pine01","primitives":[{"attributes":{"POSITION":20,"NORMAL":21,"TANGENT":22,"TEXCOORD_0":23},"indices":24,"material":2}]},{"name":"Pine02","primitives":[{"attributes":{"POSITION":25,"NORMAL":26,"TANGENT":27,"TEXCOORD_0":28},"indices":29,"material":2}]},{"name":"rock1","primitives":[{"attributes":{"POSITION":30,"NORMAL":31,"TANGENT":32,"TEXCOORD_0":33},"indices":34,"material":1}]},{"name":"rock6","primitives":[{"attributes":{"POSITION":35,"NORMAL":36,"TANGENT":37,"TEXCOORD_0":38},"indices":39,"material":1}]},{"name":"rockM_wood","primitives":[{"attributes":{"POSITION":40,"NORMAL":41,"TANGENT":42,"TEXCOORD_0":43},"indices":44,"material":3},{"attributes":{"POSITION":40,"NORMAL":41,"TANGENT":42,"TEXCOORD_0":43},"indices":45,"material":4}]},{"name":"rockS_wood","primitives":[{"attributes":{"POSITION":46,"NORMAL":47,"TANGENT":48,"TEXCOORD_0":49},"indices":50,"material":3},{"attributes":{"POSITION":46,"NORMAL":47,"TANGENT":48,"TEXCOORD_0":49},"indices":51,"material":4}]},{"name":"rockL_wood","primitives":[{"attributes":{"POSITION":52,"NORMAL":53,"TANGENT":54,"TEXCOORD_0":55},"indices":56,"material":3},{"attributes":{"POSITION":52,"NORMAL":53,"TANGENT":54,"TEXCOORD_0":55},"indices":57,"material":4}]}],"scene":0,"scenes":[{"name":"Woodland_Hill_07(Clone)","nodes":[13]}],"textures":[{"source":0},{"source":1},{"source":2},{"source":3},{"source":4}]}