{"asset":{"version":"2.0","generator":"Unity 2021.3.3f1 glTFast 4.8.3"},"nodes":[{"name":"Mushroom_09(Clone)","mesh":0,"scale":[0.1,0.1,0.1]}],"extensionsRequired":["KHR_texture_transform"],"extensionsUsed":["KHR_texture_transform"],"buffers":[{"uri":"Mushroom_09.bin","byteLength":29232}],"bufferViews":[{"buffer":0,"byteLength":4896},{"buffer":0,"byteLength":24336,"byteOffset":4896,"byteStride":48}],"accessors":[{"bufferView":1,"componentType":5126,"count":507,"type":"VEC3","max":[25.9743652,43.8385239,23.789032],"min":[-25.9742432,-0.0520858765,-36.4306641]},{"bufferView":1,"componentType":5126,"count":507,"type":"VEC3","byteOffset":12},{"bufferView":1,"componentType":5126,"count":507,"type":"VEC4","byteOffset":24},{"bufferView":1,"componentType":5126,"count":507,"type":"VEC2","byteOffset":40},{"bufferView":0,"componentType":5123,"count":2448,"type":"SCALAR"}],"images":[{"name":"Mushroom09_tex1.jpg","uri":"Mushroom09_tex1.jpg","mimeType":"image/jpeg"}],"materials":[{"name":"Mushroom09_tex1","pbrMetallicRoughness":{"metallicFactor":0,"roughnessFactor":0.5,"baseColorTexture":{"index":0,"extensions":{"KHR_texture_transform":{"offset":[0,1],"scale":[1,-1]}}}}}],"meshes":[{"name":"Mushroom_09","primitives":[{"attributes":{"POSITION":0,"NORMAL":1,"TANGENT":2,"TEXCOORD_0":3},"indices":4,"material":0}]}],"scene":0,"scenes":[{"name":"Mushroom_09(Clone)","nodes":[0]}],"textures":[{"source":0}]}