{"asset":{"version":"2.0","generator":"Unity 2021.3.22f1 glTFast 4.8.3","lastModified":"19-06-2023 11:50:46","assetVersion":"1.0","expiryToken":1},"nodes":[{"name":"bridge_003(Clone)","mesh":0}],"extensionsRequired":["KHR_texture_transform"],"extensionsUsed":["KHR_texture_transform"],"buffers":[{"uri":"bridge_003.bin","byteLength":46980}],"bufferViews":[{"buffer":0,"byteLength":3540},{"buffer":0,"byteLength":43440,"byteOffset":3540,"byteStride":48}],"accessors":[{"bufferView":1,"componentType":5126,"count":905,"type":"VEC3","max":[3.22707033,3.146328,5.98923826],"min":[-3.22707033,0.00195217133,-5.98923826]},{"bufferView":1,"componentType":5126,"count":905,"type":"VEC3","byteOffset":12},{"bufferView":1,"componentType":5126,"count":905,"type":"VEC4","byteOffset":24},{"bufferView":1,"componentType":5126,"count":905,"type":"VEC2","byteOffset":40},{"bufferView":0,"componentType":5123,"count":192,"type":"SCALAR"},{"bufferView":0,"componentType":5123,"count":60,"type":"SCALAR","byteOffset":384},{"bufferView":0,"componentType":5123,"count":660,"type":"SCALAR","byteOffset":504},{"bufferView":0,"componentType":5123,"count":6,"type":"SCALAR","byteOffset":1824},{"bufferView":0,"componentType":5123,"count":228,"type":"SCALAR","byteOffset":1836},{"bufferView":0,"componentType":5123,"count":384,"type":"SCALAR","byteOffset":2292},{"bufferView":0,"componentType":5123,"count":108,"type":"SCALAR","byteOffset":3060},{"bufferView":0,"componentType":5123,"count":24,"type":"SCALAR","byteOffset":3276},{"bufferView":0,"componentType":5123,"count":72,"type":"SCALAR","byteOffset":3324},{"bufferView":0,"componentType":5123,"count":36,"type":"SCALAR","byteOffset":3468}],"images":[{"name":"Metal_sheet_Normal.png","uri":"Metal_sheet_Normal.png","mimeType":"image/png"},{"name":"Metal_sheet_Base_color.jpg","uri":"Metal_sheet_Base_color.jpg","mimeType":"image/jpeg"},{"name":"MetalAluminumCastDirty001_COL_4K_METALNESS.png","uri":"MetalAluminumCastDirty001_COL_4K_METALNESS.png","mimeType":"image/png"}],"materials":[{"name":"bridge_003_mat1","pbrMetallicRoughness":{"baseColorFactor":[0.949814,0.949814,0.949814,1],"metallicFactor":0.756,"roughnessFactor":0.116999984},"alphaMode":"BLEND"},{"name":"bridge_003_mat2","pbrMetallicRoughness":{"baseColorFactor":[0.115566023,0.278359145,0.5,1],"metallicFactor":0,"roughnessFactor":0.5}},{"name":"bridge_003_mat3","pbrMetallicRoughness":{"baseColorFactor":[0.236011088,0.236011088,0.236011088,1],"metallicFactor":0,"roughnessFactor":0.5}},{"name":"bridge_003_mat4","pbrMetallicRoughness":{"baseColorFactor":[0,0,0,0.8766234],"metallicFactor":0.925,"roughnessFactor":0.237999976},"alphaMode":"BLEND"},{"name":"bridge_003_mat5","pbrMetallicRoughness":{"baseColorFactor":[0.06514771,0.211754411,0.226415068,1],"metallicFactor":0.932,"roughnessFactor":0.297}},{"name":"bridge_003_mat6","pbrMetallicRoughness":{"baseColorFactor":[0.1810252,0.310205,0.3396226,1],"metallicFactor":0.081,"roughnessFactor":0.738000035,"baseColorTexture":{"index":1,"extensions":{"KHR_texture_transform":{"offset":[0,1],"scale":[5,-10]}}}},"normalTexture":{"index":0,"extensions":{"KHR_texture_transform":{"offset":[0,1],"scale":[1,-1]}}}},{"name":"bridge_003_mat7","pbrMetallicRoughness":{"baseColorFactor":[0,0.7646494,1,1],"metallicFactor":0,"roughnessFactor":0.5,"baseColorTexture":{"index":2,"extensions":{"KHR_texture_transform":{"offset":[0,1],"scale":[1,-1]}}}},"emissiveFactor":[0,0.106918253,1]},{"name":"bridge_003_mat8","pbrMetallicRoughness":{"baseColorFactor":[0.21790725,0.21790725,0.21790725,0.532467544],"metallicFactor":0,"roughnessFactor":0.5},"alphaMode":"BLEND"},{"name":"bridge_003_mat9","pbrMetallicRoughness":{"baseColorFactor":[0.180392116,0.3098039,0.34117645,1],"metallicFactor":0.81,"roughnessFactor":0.738000035}},{"name":"bridge_003_mat10","pbrMetallicRoughness":{"baseColorFactor":[0.256630421,0.527642548,0.6886792,1],"metallicFactor":0.24,"roughnessFactor":0.5}}],"meshes":[{"name":"bridge_003","primitives":[{"attributes":{"POSITION":0,"NORMAL":1,"TANGENT":2,"TEXCOORD_0":3},"indices":4,"material":0},{"attributes":{"POSITION":0,"NORMAL":1,"TANGENT":2,"TEXCOORD_0":3},"indices":5,"material":1},{"attributes":{"POSITION":0,"NORMAL":1,"TANGENT":2,"TEXCOORD_0":3},"indices":6,"material":2},{"attributes":{"POSITION":0,"NORMAL":1,"TANGENT":2,"TEXCOORD_0":3},"indices":7,"material":3},{"attributes":{"POSITION":0,"NORMAL":1,"TANGENT":2,"TEXCOORD_0":3},"indices":8,"material":4},{"attributes":{"POSITION":0,"NORMAL":1,"TANGENT":2,"TEXCOORD_0":3},"indices":9,"material":5},{"attributes":{"POSITION":0,"NORMAL":1,"TANGENT":2,"TEXCOORD_0":3},"indices":10,"material":6},{"attributes":{"POSITION":0,"NORMAL":1,"TANGENT":2,"TEXCOORD_0":3},"indices":11,"material":7},{"attributes":{"POSITION":0,"NORMAL":1,"TANGENT":2,"TEXCOORD_0":3},"indices":12,"material":8},{"attributes":{"POSITION":0,"NORMAL":1,"TANGENT":2,"TEXCOORD_0":3},"indices":13,"material":9}]}],"scene":0,"scenes":[{"name":"bridge_003(Clone)","nodes":[0]}],"textures":[{"source":0},{"source":1},{"source":2}]}