{"asset":{"version":"2.0","generator":"Unity 2021.3.22f1 glTFast 4.8.3","lastModified":"06-07-2023 12:27:10","assetVersion":"1.0","expiryToken":1},"nodes":[{"name":"Building01_antena1","mesh":0,"translation":[2.67,2.94,-2.13],"rotation":[2.18556941E-08,0,0,1]},{"name":"Building01_antena2","mesh":1,"translation":[-5.03,0,-1.43],"rotation":[2.18556941E-08,0,0,1]},{"name":"Building01_Dome1","mesh":2,"translation":[0,-0.25,0]},{"name":"Building01_tower1","mesh":3,"translation":[4.43,3.46,0.23],"rotation":[2.18556941E-08,0,0,1]},{"name":"Building01_Window1","mesh":4,"translation":[-2.909,2.271,5.412],"rotation":[-0.214869678,-0.0684869662,-0.0940516,0.969688058]},{"name":"Building01_Window1","mesh":4,"translation":[-6.01570272,2.271,1.25034308],"rotation":[-0.154990152,-0.471878141,-0.176047564,0.849892]},{"name":"Building01_Window1","mesh":4,"translation":[-4.82463741,2.271,-3.80458927],"rotation":[-0.06606787,-0.7868467,-0.22505492,0.5708394]},{"name":"Building01_Window1","mesh":4,"translation":[-0.186733246,2.271,-6.14142942],"rotation":[0.035234496,-0.9543724,-0.231890559,0.184820473]},{"name":"Building01_Window1","mesh":4,"translation":[4.58457851,2.271,-4.09068155],"rotation":[0.12993446,-0.943063736,-0.195273444,-0.235830978]},{"name":"Building01_Window1","mesh":4,"translation":[6.080554,2.271,0.8825512],"rotation":[0.200286731,-0.755039454,-0.122065164,-0.612291455]},{"name":"Building01_Window1","mesh":4,"translation":[3.23242974,2.271,5.22526741],"rotation":[0.2331084,-0.425532579,-0.0259837657,-0.874017954]},{"name":"Building01_antena1","mesh":0,"translation":[1.53,1.03,-2.82],"rotation":[7.928706E-09,0.931876838,-2.03668122E-08,0.362774849]},{"name":"Building01_Door1","mesh":5,"translation":[0,0,7.372],"rotation":[2.18556941E-08,0,0,1]},{"name":"Building01(Clone)","children":[0,1,2,3,4,5,6,7,8,9,10,11,12]}],"extensionsRequired":["KHR_texture_transform"],"extensionsUsed":["KHR_texture_transform"],"buffers":[{"uri":"Building01.bin","byteLength":732160}],"bufferViews":[{"buffer":0,"byteLength":9288},{"buffer":0,"byteLength":181560,"byteOffset":9288,"byteStride":60},{"buffer":0,"byteLength":13392,"byteOffset":190848},{"buffer":0,"byteLength":223320,"byteOffset":204240,"byteStride":60},{"buffer":0,"byteLength":9984,"byteOffset":427560},{"buffer":0,"byteLength":48724,"byteOffset":437544,"byteStride":52},{"buffer":0,"byteLength":6912,"byteOffset":486268},{"buffer":0,"byteLength":124740,"byteOffset":493180,"byteStride":60},{"buffer":0,"byteLength":3840,"byteOffset":617920},{"buffer":0,"byteLength":75960,"byteOffset":621760,"byteStride":60},{"buffer":0,"byteLength":2280,"byteOffset":697720},{"buffer":0,"byteLength":32160,"byteOffset":700000,"byteStride":60}],"accessors":[{"bufferView":1,"componentType":5126,"count":3026,"type":"VEC3","max":[0.9226514,12.7197638,0.331357628],"min":[-0.3313614,0,-0.3313581]},{"bufferView":1,"componentType":5126,"count":3026,"type":"VEC3","byteOffset":12},{"bufferView":1,"componentType":5126,"count":3026,"type":"VEC4","byteOffset":24},{"bufferView":1,"componentType":5121,"count":3026,"type":"VEC4","byteOffset":40},{"bufferView":1,"componentType":5126,"count":3026,"type":"VEC2","byteOffset":44},{"bufferView":1,"componentType":5126,"count":3026,"type":"VEC2","byteOffset":52},{"bufferView":0,"componentType":5123,"count":4590,"type":"SCALAR"},{"bufferView":0,"componentType":5123,"count":54,"type":"SCALAR","byteOffset":9180},{"bufferView":3,"componentType":5126,"count":3722,"type":"VEC3","max":[1.36865139,15.33446,0.8731909],"min":[-1.36865616,-9.536743E-07,-0.8731916]},{"bufferView":3,"componentType":5126,"count":3722,"type":"VEC3","byteOffset":12},{"bufferView":3,"componentType":5126,"count":3722,"type":"VEC4","byteOffset":24},{"bufferView":3,"componentType":5121,"count":3722,"type":"VEC4","byteOffset":40},{"bufferView":3,"componentType":5126,"count":3722,"type":"VEC2","byteOffset":44},{"bufferView":3,"componentType":5126,"count":3722,"type":"VEC2","byteOffset":52},{"bufferView":2,"componentType":5123,"count":4392,"type":"SCALAR"},{"bufferView":2,"componentType":5123,"count":2304,"type":"SCALAR","byteOffset":8784},{"bufferView":5,"componentType":5126,"count":937,"type":"VEC3","max":[6.94674969,7.10038662,6.9467473],"min":[-6.946746,0.233317852,-6.946752]},{"bufferView":5,"componentType":5126,"count":937,"type":"VEC3","byteOffset":12},{"bufferView":5,"componentType":5126,"count":937,"type":"VEC4","byteOffset":24},{"bufferView":5,"componentType":5121,"count":937,"type":"VEC4","byteOffset":40},{"bufferView":5,"componentType":5126,"count":937,"type":"VEC2","byteOffset":44},{"bufferView":4,"componentType":5123,"count":2094,"type":"SCALAR"},{"bufferView":4,"componentType":5123,"count":2898,"type":"SCALAR","byteOffset":4188},{"bufferView":7,"componentType":5126,"count":2079,"type":"VEC3","max":[1.082849,6.40651464,1.06331873],"min":[-1.04378915,0,-1.06331968]},{"bufferView":7,"componentType":5126,"count":2079,"type":"VEC3","byteOffset":12},{"bufferView":7,"componentType":5126,"count":2079,"type":"VEC4","byteOffset":24},{"bufferView":7,"componentType":5121,"count":2079,"type":"VEC4","byteOffset":40},{"bufferView":7,"componentType":5126,"count":2079,"type":"VEC2","byteOffset":44},{"bufferView":7,"componentType":5126,"count":2079,"type":"VEC2","byteOffset":52},{"bufferView":6,"componentType":5123,"count":3264,"type":"SCALAR"},{"bufferView":6,"componentType":5123,"count":192,"type":"SCALAR","byteOffset":6528},{"bufferView":9,"componentType":5126,"count":1266,"type":"VEC3","max":[1.278472,1.80829358,1.04458511],"min":[-1.42851734,-0.0152962208,-0.5065485]},{"bufferView":9,"componentType":5126,"count":1266,"type":"VEC3","byteOffset":12},{"bufferView":9,"componentType":5126,"count":1266,"type":"VEC4","byteOffset":24},{"bufferView":9,"componentType":5121,"count":1266,"type":"VEC4","byteOffset":40},{"bufferView":9,"componentType":5126,"count":1266,"type":"VEC2","byteOffset":44},{"bufferView":9,"componentType":5126,"count":1266,"type":"VEC2","byteOffset":52},{"bufferView":8,"componentType":5123,"count":960,"type":"SCALAR"},{"bufferView":8,"componentType":5123,"count":960,"type":"SCALAR","byteOffset":1920},{"bufferView":11,"componentType":5126,"count":536,"type":"VEC3","max":[1.23949766,2.52191234,1.02715826],"min":[-1.24547958,-0.00559711456,-1.64836073]},{"bufferView":11,"componentType":5126,"count":536,"type":"VEC3","byteOffset":12},{"bufferView":11,"componentType":5126,"count":536,"type":"VEC4","byteOffset":24},{"bufferView":11,"componentType":5121,"count":536,"type":"VEC4","byteOffset":40},{"bufferView":11,"componentType":5126,"count":536,"type":"VEC2","byteOffset":44},{"bufferView":11,"componentType":5126,"count":536,"type":"VEC2","byteOffset":52},{"bufferView":10,"componentType":5123,"count":492,"type":"SCALAR"},{"bufferView":10,"componentType":5123,"count":588,"type":"SCALAR","byteOffset":984},{"bufferView":10,"componentType":5123,"count":60,"type":"SCALAR","byteOffset":2160}],"images":[{"name":"Steel_tex.jpg","uri":"Steel_tex.jpg","mimeType":"image/jpeg"},{"name":"Base_albedo.jpg","uri":"Base_albedo.jpg","mimeType":"image/jpeg"},{"name":"marble_map.png","uri":"marble_map.png","mimeType":"image/png"}],"materials":[{"name":"Building01_mat1","pbrMetallicRoughness":{"baseColorFactor":[0.6792453,0.6792453,0.6792453,1],"metallicFactor":0.784,"roughnessFactor":0.292999983,"baseColorTexture":{"index":0,"extensions":{"KHR_texture_transform":{"offset":[0,1],"scale":[10,-10]}}}}},{"name":"Building01_mat3","pbrMetallicRoughness":{"baseColorFactor":[0,0.8740257,0.9063317,1],"metallicFactor":0.779,"roughnessFactor":0.172999978,"baseColorTexture":{"index":1,"extensions":{"KHR_texture_transform":{"offset":[0,1],"scale":[10,-10]}}}}},{"name":"Building01_mat2","pbrMetallicRoughness":{"baseColorFactor":[0.654902,0.7058823,0.792156935,1],"metallicFactor":0.74,"roughnessFactor":0.569,"baseColorTexture":{"index":2,"extensions":{"KHR_texture_transform":{"offset":[0,1],"scale":[10,-10]}}}}},{"name":"Building01_mat8","pbrMetallicRoughness":{"baseColorFactor":[1,0.430093467,0.202830136,1],"metallicFactor":0.74,"roughnessFactor":0.585999966,"baseColorTexture":{"index":2,"extensions":{"KHR_texture_transform":{"offset":[0,1],"scale":[60,-60]}}}}},{"name":"Building01_mat9","pbrMetallicRoughness":{"baseColorFactor":[0.325516135,0.8889095,0.8962264,1],"metallicFactor":0.74,"roughnessFactor":0.440999985,"baseColorTexture":{"index":2,"extensions":{"KHR_texture_transform":{"offset":[0,1],"scale":[100,-100]}}}}},{"name":"Building01_mat4","pbrMetallicRoughness":{"baseColorFactor":[0,0.8740257,0.9063317,1],"metallicFactor":0.779,"roughnessFactor":0.362999976}},{"name":"Building01_mat5","pbrMetallicRoughness":{"baseColorFactor":[1,0.4300935,0.202830166,1],"metallicFactor":0.74,"roughnessFactor":0.585999966,"baseColorTexture":{"index":2,"extensions":{"KHR_texture_transform":{"offset":[0,1],"scale":[50,-50]}}}}}],"meshes":[{"name":"Building01_antena1","primitives":[{"attributes":{"POSITION":0,"NORMAL":1,"TANGENT":2,"TEXCOORD_0":4,"TEXCOORD_1":5,"COLOR_0":3},"indices":6,"material":0},{"attributes":{"POSITION":0,"NORMAL":1,"TANGENT":2,"TEXCOORD_0":4,"TEXCOORD_1":5,"COLOR_0":3},"indices":7,"material":1}]},{"name":"Building01_antena2","primitives":[{"attributes":{"POSITION":8,"NORMAL":9,"TANGENT":10,"TEXCOORD_0":12,"TEXCOORD_1":13,"COLOR_0":11},"indices":14,"material":0},{"attributes":{"POSITION":8,"NORMAL":9,"TANGENT":10,"TEXCOORD_0":12,"TEXCOORD_1":13,"COLOR_0":11},"indices":15,"material":1}]},{"name":"Building01_Dome1","primitives":[{"attributes":{"POSITION":16,"NORMAL":17,"TANGENT":18,"TEXCOORD_0":20,"COLOR_0":19},"indices":21,"material":2},{"attributes":{"POSITION":16,"NORMAL":17,"TANGENT":18,"TEXCOORD_0":20,"COLOR_0":19},"indices":22,"material":3}]},{"name":"Building01_tower1","primitives":[{"attributes":{"POSITION":23,"NORMAL":24,"TANGENT":25,"TEXCOORD_0":27,"TEXCOORD_1":28,"COLOR_0":26},"indices":29,"material":4},{"attributes":{"POSITION":23,"NORMAL":24,"TANGENT":25,"TEXCOORD_0":27,"TEXCOORD_1":28,"COLOR_0":26},"indices":30,"material":2}]},{"name":"Building01_Window1","primitives":[{"attributes":{"POSITION":31,"NORMAL":32,"TANGENT":33,"TEXCOORD_0":35,"TEXCOORD_1":36,"COLOR_0":34},"indices":37,"material":5},{"attributes":{"POSITION":31,"NORMAL":32,"TANGENT":33,"TEXCOORD_0":35,"TEXCOORD_1":36,"COLOR_0":34},"indices":38,"material":6}]},{"name":"Building01_Door1","primitives":[{"attributes":{"POSITION":39,"NORMAL":40,"TANGENT":41,"TEXCOORD_0":43,"TEXCOORD_1":44,"COLOR_0":42},"indices":45,"material":1},{"attributes":{"POSITION":39,"NORMAL":40,"TANGENT":41,"TEXCOORD_0":43,"TEXCOORD_1":44,"COLOR_0":42},"indices":46,"material":2},{"attributes":{"POSITION":39,"NORMAL":40,"TANGENT":41,"TEXCOORD_0":43,"TEXCOORD_1":44,"COLOR_0":42},"indices":47,"material":0}]}],"scene":0,"scenes":[{"name":"Building01(Clone)","nodes":[13]}],"textures":[{"source":0},{"source":1},{"source":2}]}