{"asset":{"version":"2.0","generator":"Unity 2021.3.3f1 glTFast 4.8.3"},"nodes":[{"name":"Mushroom_03_02(Clone)","mesh":0,"scale":[0.1,0.1,0.1]}],"extensionsRequired":["KHR_texture_transform"],"extensionsUsed":["KHR_texture_transform"],"buffers":[{"uri":"Mushroom_03_02.bin","byteLength":61920}],"bufferViews":[{"buffer":0,"byteLength":9792},{"buffer":0,"byteLength":52128,"byteOffset":9792,"byteStride":48}],"accessors":[{"bufferView":1,"componentType":5126,"count":1086,"type":"VEC3","max":[30.781189,75.3911743,36.2201538],"min":[-36.9373779,-1.59365845,-36.2202148]},{"bufferView":1,"componentType":5126,"count":1086,"type":"VEC3","byteOffset":12},{"bufferView":1,"componentType":5126,"count":1086,"type":"VEC4","byteOffset":24},{"bufferView":1,"componentType":5126,"count":1086,"type":"VEC2","byteOffset":40},{"bufferView":0,"componentType":5123,"count":4896,"type":"SCALAR"}],"images":[{"name":"Mushroom03_tex2.jpg","uri":"Mushroom03_tex2.jpg","mimeType":"image/jpeg"}],"materials":[{"name":"Mushroom03_tex2","pbrMetallicRoughness":{"metallicFactor":0,"roughnessFactor":0.5,"baseColorTexture":{"index":0,"extensions":{"KHR_texture_transform":{"offset":[0,1],"scale":[1,-1]}}}}}],"meshes":[{"name":"Mushroom_03","primitives":[{"attributes":{"POSITION":0,"NORMAL":1,"TANGENT":2,"TEXCOORD_0":3},"indices":4,"material":0}]}],"scene":0,"scenes":[{"name":"Mushroom_03_02(Clone)","nodes":[0]}],"textures":[{"source":0}]}