{"asset":{"version":"2.0","generator":"Unity 2021.3.22f1 glTFast 4.8.3","lastModified":"05-06-2023 13:37:05","assetVersion":"1.0","expiryToken":1},"nodes":[{"name":"Lava_Rock_01(Clone)","mesh":0}],"extensionsRequired":["KHR_texture_transform"],"extensionsUsed":["KHR_texture_transform"],"buffers":[{"uri":"Lava_Rock_01.bin","byteLength":33912}],"bufferViews":[{"buffer":0,"byteLength":5304},{"buffer":0,"byteLength":28608,"byteOffset":5304,"byteStride":48}],"accessors":[{"bufferView":1,"componentType":5126,"count":596,"type":"VEC3","max":[0.963363767,2.574304,1.34737122],"min":[-0.963364,-0.4290867,-1.34737122]},{"bufferView":1,"componentType":5126,"count":596,"type":"VEC3","byteOffset":12},{"bufferView":1,"componentType":5126,"count":596,"type":"VEC4","byteOffset":24},{"bufferView":1,"componentType":5126,"count":596,"type":"VEC2","byteOffset":40},{"bufferView":0,"componentType":5123,"count":2208,"type":"SCALAR"},{"bufferView":0,"componentType":5123,"count":108,"type":"SCALAR","byteOffset":4416},{"bufferView":0,"componentType":5123,"count":336,"type":"SCALAR","byteOffset":4632}],"images":[{"name":"Lava_Normal.png","uri":"Lava_Normal.png","mimeType":"image/png"},{"name":"Lava_Color.jpg","uri":"Lava_Color.jpg","mimeType":"image/jpeg"},{"name":"Rock_04_AO.jpg","uri":"Rock_04_AO.jpg","mimeType":"image/jpeg"},{"name":"Lava_Emission.jpg","uri":"Lava_Emission.jpg","mimeType":"image/jpeg"}],"materials":[{"name":"Lava_Rock_01_mat","pbrMetallicRoughness":{"baseColorFactor":[0.766,0.6581621,0.646504,1],"roughnessFactor":0.608999968,"baseColorTexture":{"index":1,"extensions":{"KHR_texture_transform":{"offset":[0,1],"scale":[1,-1]}}}},"normalTexture":{"index":0,"extensions":{"KHR_texture_transform":{"offset":[0,1],"scale":[1,-1]}},"scale":1.5},"occlusionTexture":{"index":2,"extensions":{"KHR_texture_transform":{"offset":[0,1],"scale":[1,-1]}}}},{"name":"Lava_Rock_Lava_01_mat1","pbrMetallicRoughness":{"metallicFactor":0.331,"roughnessFactor":0.73300004,"baseColorTexture":{"index":1,"extensions":{"KHR_texture_transform":{"offset":[0,1],"scale":[8,-8]}}}},"normalTexture":{"index":0,"extensions":{"KHR_texture_transform":{"offset":[0,1],"scale":[1,-1]}}},"emissiveTexture":{"index":3,"extensions":{"KHR_texture_transform":{"offset":[0,1],"scale":[1,-1]}}},"emissiveFactor":[1,1,1]},{"name":"Lava_Rock_Lava_01_mat","pbrMetallicRoughness":{"metallicFactor":0.381,"roughnessFactor":0.682000041,"baseColorTexture":{"index":1,"extensions":{"KHR_texture_transform":{"offset":[0,1],"scale":[5,-10]}}}},"normalTexture":{"index":0,"extensions":{"KHR_texture_transform":{"offset":[0,1],"scale":[1,-1]}}},"emissiveTexture":{"index":3,"extensions":{"KHR_texture_transform":{"offset":[0,1],"scale":[1,-1]}}},"emissiveFactor":[1,1,1]}],"meshes":[{"name":"Lava_Rock_01","primitives":[{"attributes":{"POSITION":0,"NORMAL":1,"TANGENT":2,"TEXCOORD_0":3},"indices":4,"material":0},{"attributes":{"POSITION":0,"NORMAL":1,"TANGENT":2,"TEXCOORD_0":3},"indices":5,"material":1},{"attributes":{"POSITION":0,"NORMAL":1,"TANGENT":2,"TEXCOORD_0":3},"indices":6,"material":2}]}],"scene":0,"scenes":[{"name":"Lava_Rock_01(Clone)","nodes":[0]}],"textures":[{"source":0},{"source":1},{"source":2},{"source":3}]}