{"asset":{"version":"2.0","generator":"Unity 2021.3.22f1 glTFast 4.8.3","lastModified":"06-07-2023 12:27:48","assetVersion":"1.0","expiryToken":1},"nodes":[{"name":"Watertank02","mesh":0,"rotation":[2.18556941E-08,0,0,1]},{"name":"Watertank01_Water","mesh":1,"translation":[-0.137040645,0.300471663,-1.78813934E-07]},{"name":"Watertank01","children":[1],"mesh":2,"translation":[-0.25,4.77,0],"rotation":[2.18556941E-08,0,0,1],"scale":[1.1061,1.1061,1.1061]},{"name":"Watertank(Clone)","children":[0,2]}],"extensionsRequired":["KHR_texture_transform"],"extensionsUsed":["KHR_texture_transform"],"buffers":[{"uri":"Watertank.bin","byteLength":5510004}],"bufferViews":[{"buffer":0,"byteLength":1276164},{"buffer":0,"byteLength":4196976,"byteOffset":1276164,"byteStride":56},{"buffer":0,"byteLength":5184,"byteOffset":5473140},{"buffer":0,"byteLength":26784,"byteOffset":5478324,"byteStride":48},{"buffer":0,"byteLength":384,"byteOffset":5505108},{"buffer":0,"byteLength":4512,"byteOffset":5505492,"byteStride":48}],"accessors":[{"bufferView":1,"componentType":5126,"count":74946,"type":"VEC3","max":[7.441595,18.131422,6.991502],"min":[-7.43878651,-1.52587891E-05,-6.991502]},{"bufferView":1,"componentType":5126,"count":74946,"type":"VEC3","byteOffset":12},{"bufferView":1,"componentType":5126,"count":74946,"type":"VEC4","byteOffset":24},{"bufferView":1,"componentType":5126,"count":74946,"type":"VEC2","byteOffset":40},{"bufferView":1,"componentType":5126,"count":74946,"type":"VEC2","byteOffset":48},{"bufferView":0,"componentType":5125,"count":187041,"type":"SCALAR"},{"bufferView":0,"componentType":5125,"count":46518,"type":"SCALAR","byteOffset":748164},{"bufferView":0,"componentType":5125,"count":19260,"type":"SCALAR","byteOffset":934236},{"bufferView":0,"componentType":5125,"count":19704,"type":"SCALAR","byteOffset":1011276},{"bufferView":0,"componentType":5125,"count":9600,"type":"SCALAR","byteOffset":1090092},{"bufferView":0,"componentType":5125,"count":33078,"type":"SCALAR","byteOffset":1128492},{"bufferView":0,"componentType":5125,"count":3840,"type":"SCALAR","byteOffset":1260804},{"bufferView":3,"componentType":5126,"count":558,"type":"VEC3","max":[4.342467,4.598801,4.342467],"min":[-4.342467,-4.76837158E-07,-4.342467]},{"bufferView":3,"componentType":5126,"count":558,"type":"VEC3","byteOffset":12},{"bufferView":3,"componentType":5126,"count":558,"type":"VEC4","byteOffset":24},{"bufferView":3,"componentType":5126,"count":558,"type":"VEC2","byteOffset":40},{"bufferView":2,"componentType":5123,"count":2592,"type":"SCALAR"},{"bufferView":5,"componentType":5126,"count":94,"type":"VEC3","max":[4.756867,10.6082077,4.89390755],"min":[-5.030949,0.05238533,-4.89391136]},{"bufferView":5,"componentType":5126,"count":94,"type":"VEC3","byteOffset":12},{"bufferView":5,"componentType":5126,"count":94,"type":"VEC4","byteOffset":24},{"bufferView":5,"componentType":5126,"count":94,"type":"VEC2","byteOffset":40},{"bufferView":4,"componentType":5123,"count":192,"type":"SCALAR"}],"images":[{"name":"marble_map.png","uri":"marble_map.png","mimeType":"image/png"},{"name":"MetalWornFillA_basecolor.jpg","uri":"MetalWornFillA_basecolor.jpg","mimeType":"image/jpeg"},{"name":"Base_albedo.jpg","uri":"Base_albedo.jpg","mimeType":"image/jpeg"}],"materials":[{"name":"Building01_mat2","pbrMetallicRoughness":{"baseColorFactor":[0.654902,0.7058823,0.792156935,1],"metallicFactor":0.74,"roughnessFactor":0.569,"baseColorTexture":{"index":0,"extensions":{"KHR_texture_transform":{"offset":[0,1],"scale":[10,-10]}}}}},{"name":"Building01_mat4","pbrMetallicRoughness":{"baseColorFactor":[0,0.8740257,0.9063317,1],"metallicFactor":0.779,"roughnessFactor":0.362999976}},{"name":"Building01_mat5","pbrMetallicRoughness":{"baseColorFactor":[1,0.4300935,0.202830166,1],"metallicFactor":0.74,"roughnessFactor":0.585999966,"baseColorTexture":{"index":0,"extensions":{"KHR_texture_transform":{"offset":[0,1],"scale":[50,-50]}}}}},{"name":"Watertank02_mat5","pbrMetallicRoughness":{"baseColorFactor":[0.188679188,0.188679188,0.188679188,0.858823538],"metallicFactor":0.729,"roughnessFactor":0.606,"baseColorTexture":{"index":1,"extensions":{"KHR_texture_transform":{"offset":[0,1],"scale":[1,-1]}}}},"alphaMode":"BLEND"},{"name":"Building01_mat3","pbrMetallicRoughness":{"baseColorFactor":[0,0.8740257,0.9063317,1],"metallicFactor":0.779,"roughnessFactor":0.172999978,"baseColorTexture":{"index":2,"extensions":{"KHR_texture_transform":{"offset":[0,1],"scale":[10,-10]}}}}},{"name":"Watertank01_mat1","pbrMetallicRoughness":{"baseColorFactor":[0,0.441556573,0.9063317,1],"metallicFactor":0,"roughnessFactor":0.5,"baseColorTexture":{"index":1,"extensions":{"KHR_texture_transform":{"offset":[0,1],"scale":[1,-1]}}}},"emissiveFactor":[0,0.167326912,1]},{"name":"Watertank01_mat2","pbrMetallicRoughness":{"baseColorFactor":[0,0.143619508,1,0.6431373],"metallicFactor":0,"roughnessFactor":0.5,"baseColorTexture":{"index":2,"extensions":{"KHR_texture_transform":{"offset":[0,1],"scale":[1,-1]}}}},"alphaMode":"BLEND"}],"meshes":[{"name":"Watertank02","primitives":[{"attributes":{"POSITION":0,"NORMAL":1,"TANGENT":2,"TEXCOORD_0":3,"TEXCOORD_1":4},"indices":5,"material":0},{"attributes":{"POSITION":0,"NORMAL":1,"TANGENT":2,"TEXCOORD_0":3,"TEXCOORD_1":4},"indices":6,"material":1},{"attributes":{"POSITION":0,"NORMAL":1,"TANGENT":2,"TEXCOORD_0":3,"TEXCOORD_1":4},"indices":7,"material":2},{"attributes":{"POSITION":0,"NORMAL":1,"TANGENT":2,"TEXCOORD_0":3,"TEXCOORD_1":4},"indices":8,"material":2},{"attributes":{"POSITION":0,"NORMAL":1,"TANGENT":2,"TEXCOORD_0":3,"TEXCOORD_1":4},"indices":9,"material":3},{"attributes":{"POSITION":0,"NORMAL":1,"TANGENT":2,"TEXCOORD_0":3,"TEXCOORD_1":4},"indices":10,"material":4},{"attributes":{"POSITION":0,"NORMAL":1,"TANGENT":2,"TEXCOORD_0":3,"TEXCOORD_1":4},"indices":11,"material":2}]},{"name":"Watertank01_Water","primitives":[{"attributes":{"POSITION":12,"NORMAL":13,"TANGENT":14,"TEXCOORD_0":15},"indices":16,"material":5}]},{"name":"Watertank01_Tank","primitives":[{"attributes":{"POSITION":17,"NORMAL":18,"TANGENT":19,"TEXCOORD_0":20},"indices":21,"material":6}]}],"scene":0,"scenes":[{"name":"Watertank(Clone)","nodes":[3]}],"textures":[{"source":0},{"source":1},{"source":2}]}