{"asset":{"version":"2.0","generator":"Unity 2021.3.22f1 glTFast 4.8.3","lastModified":"06-07-2023 12:27:17","assetVersion":"1.0","expiryToken":1},"nodes":[{"name":"Building01_tower1(Clone)","mesh":0}],"extensionsRequired":["KHR_texture_transform"],"extensionsUsed":["KHR_texture_transform"],"buffers":[{"uri":"Building01_tower1.bin","byteLength":131652}],"bufferViews":[{"buffer":0,"byteLength":6912},{"buffer":0,"byteLength":124740,"byteOffset":6912,"byteStride":60}],"accessors":[{"bufferView":1,"componentType":5126,"count":2079,"type":"VEC3","max":[1.082849,6.40651464,1.06331873],"min":[-1.04378915,0,-1.06331968]},{"bufferView":1,"componentType":5126,"count":2079,"type":"VEC3","byteOffset":12},{"bufferView":1,"componentType":5126,"count":2079,"type":"VEC4","byteOffset":24},{"bufferView":1,"componentType":5121,"count":2079,"type":"VEC4","byteOffset":40},{"bufferView":1,"componentType":5126,"count":2079,"type":"VEC2","byteOffset":44},{"bufferView":1,"componentType":5126,"count":2079,"type":"VEC2","byteOffset":52},{"bufferView":0,"componentType":5123,"count":3264,"type":"SCALAR"},{"bufferView":0,"componentType":5123,"count":192,"type":"SCALAR","byteOffset":6528}],"images":[{"name":"Base_albedo.jpg","uri":"Base_albedo.jpg","mimeType":"image/jpeg"},{"name":"marble_map.png","uri":"marble_map.png","mimeType":"image/png"}],"materials":[{"name":"Building01_mat3","pbrMetallicRoughness":{"baseColorFactor":[0,0.8740257,0.9063317,1],"metallicFactor":0.779,"roughnessFactor":0.172999978,"baseColorTexture":{"index":0,"extensions":{"KHR_texture_transform":{"offset":[0,1],"scale":[10,-10]}}}}},{"name":"Building01_mat2","pbrMetallicRoughness":{"baseColorFactor":[0.654902,0.7058823,0.792156935,1],"metallicFactor":0.74,"roughnessFactor":0.569,"baseColorTexture":{"index":1,"extensions":{"KHR_texture_transform":{"offset":[0,1],"scale":[10,-10]}}}}}],"meshes":[{"name":"Building01_tower1","primitives":[{"attributes":{"POSITION":0,"NORMAL":1,"TANGENT":2,"TEXCOORD_0":4,"TEXCOORD_1":5,"COLOR_0":3},"indices":6,"material":0},{"attributes":{"POSITION":0,"NORMAL":1,"TANGENT":2,"TEXCOORD_0":4,"TEXCOORD_1":5,"COLOR_0":3},"indices":7,"material":1}]}],"scene":0,"scenes":[{"name":"Building01_tower1(Clone)","nodes":[0]}],"textures":[{"source":0},{"source":1}]}