{"asset":{"version":"2.0","generator":"Unity 2021.3.22f1 glTFast 4.8.3","lastModified":"01-06-2023 13:30:35","assetVersion":"1.0","expiryToken":1},"nodes":[{"name":"satellite","mesh":0,"translation":[0,-0.2964374,-0.9175045]},{"name":"pilot seat","mesh":1,"translation":[0.01999998,0.3725626,-0.4495045]},{"name":"control","mesh":2,"translation":[0.0068,0.0269,0.1102]},{"name":"Object09","mesh":3,"translation":[-0.00171947479,-0.1438644,-1.807824],"rotation":[-0.7071068,0,0,0.7071068]},{"name":"Object02","mesh":4,"translation":[-0.001719445,-0.20486331,-0.210077375]},{"name":"Object26","mesh":5},{"name":"Object20","children":[4,5],"mesh":6,"translation":[0,0.5514935,-0.6716995],"rotation":[-0.7071068,0,0,0.7071068]},{"name":"cap","children":[3,6],"translation":[0,0.6825626,-0.4505045]},{"name":"cabin chassis","mesh":7,"translation":[-0.0009994507,-0.00243740156,-0.0005044824]},{"name":"long nose (1)","mesh":8,"translation":[-0.0009994507,-0.526437163,4.95549536]},{"name":"Object88","mesh":9,"translation":[0.2503624,-0.209273323,0.2936306],"rotation":[-0.7075437,0.18695046,0.0387986936,0.6803868],"scale":[1,0.99999994,1]},{"name":"Object89","mesh":10,"translation":[-0.000321388245,0,0],"rotation":[-0.7071069,0,0,0.70710665]},{"name":"nose wing L (1)","children":[10,11],"translation":[1.34599876,-0.6854372,5.24849558]},{"name":"Object18","mesh":11,"translation":[-0.2503624,-0.209273323,0.2936306],"rotation":[-0.7062763,-0.17569603,-0.05454035,0.683615446]},{"name":"Object19","mesh":12,"translation":[0.000321865082,0,0],"rotation":[-0.7071068,0,0,0.7071068]},{"name":"nose wing R (1)","children":[13,14],"translation":[-1.34799957,-0.6854372,5.24849558]},{"name":"chassis FR static cap (2)","mesh":13,"translation":[0.002998352,-1.29443741,0.93049556]},{"name":"ship_3(Clone)","children":[0,1,2,7,8,9,12,15,16]}],"extensionsRequired":["KHR_texture_transform"],"extensionsUsed":["KHR_texture_transform"],"buffers":[{"uri":"ship_3.bin","byteLength":264076}],"bufferViews":[{"buffer":0,"byteLength":3180},{"buffer":0,"byteLength":47520,"byteOffset":3180,"byteStride":48},{"buffer":0,"byteLength":6528,"byteOffset":50700},{"buffer":0,"byteLength":45264,"byteOffset":57228,"byteStride":48},{"buffer":0,"byteLength":3876,"byteOffset":102492},{"buffer":0,"byteLength":48960,"byteOffset":106368,"byteStride":48},{"buffer":0,"byteLength":336,"byteOffset":155328},{"buffer":0,"byteLength":3072,"byteOffset":155664,"byteStride":48},{"buffer":0,"byteLength":240,"byteOffset":158736},{"buffer":0,"byteLength":2112,"byteOffset":158976,"byteStride":48},{"buffer":0,"byteLength":432,"byteOffset":161088},{"buffer":0,"byteLength":4608,"byteOffset":161520,"byteStride":48},{"buffer":0,"byteLength":2640,"byteOffset":166128},{"buffer":0,"byteLength":34944,"byteOffset":168768,"byteStride":48},{"buffer":0,"byteLength":1188,"byteOffset":203712},{"buffer":0,"byteLength":16992,"byteOffset":204900,"byteStride":48},{"buffer":0,"byteLength":504,"byteOffset":221892},{"buffer":0,"byteLength":8160,"byteOffset":222396,"byteStride":48},{"buffer":0,"byteLength":216,"byteOffset":230556},{"buffer":0,"byteLength":3264,"byteOffset":230772,"byteStride":48},{"buffer":0,"byteLength":534,"byteOffset":234036},{"buffer":0,"byteLength":7632,"byteOffset":234572,"byteStride":48},{"buffer":0,"byteLength":216,"byteOffset":242204},{"buffer":0,"byteLength":3264,"byteOffset":242420,"byteStride":48},{"buffer":0,"byteLength":534,"byteOffset":245684},{"buffer":0,"byteLength":7632,"byteOffset":246220,"byteStride":48},{"buffer":0,"byteLength":624,"byteOffset":253852},{"buffer":0,"byteLength":9600,"byteOffset":254476,"byteStride":48}],"accessors":[{"bufferView":1,"componentType":5126,"count":990,"type":"VEC3","max":[3.16852474,0.9465821,3.920943],"min":[-3.16852474,-0.9465821,-3.920943]},{"bufferView":1,"componentType":5126,"count":990,"type":"VEC3","byteOffset":12},{"bufferView":1,"componentType":5126,"count":990,"type":"VEC4","byteOffset":24},{"bufferView":1,"componentType":5126,"count":990,"type":"VEC2","byteOffset":40},{"bufferView":0,"componentType":5123,"count":1590,"type":"SCALAR"},{"bufferView":3,"componentType":5126,"count":943,"type":"VEC3","max":[1.14609087,0.8646902,1.82787871],"min":[-1.14609063,-0.8646902,-1.82787871]},{"bufferView":3,"componentType":5126,"count":943,"type":"VEC3","byteOffset":12},{"bufferView":3,"componentType":5126,"count":943,"type":"VEC4","byteOffset":24},{"bufferView":3,"componentType":5126,"count":943,"type":"VEC2","byteOffset":40},{"bufferView":2,"componentType":5123,"count":3264,"type":"SCALAR"},{"bufferView":5,"componentType":5126,"count":1020,"type":"VEC3","max":[1.117018,0.7012016,1.3482883],"min":[-1.11701775,-0.7012016,-1.348288]},{"bufferView":5,"componentType":5126,"count":1020,"type":"VEC3","byteOffset":12},{"bufferView":5,"componentType":5126,"count":1020,"type":"VEC4","byteOffset":24},{"bufferView":5,"componentType":5126,"count":1020,"type":"VEC2","byteOffset":40},{"bufferView":4,"componentType":5123,"count":1914,"type":"SCALAR"},{"bufferView":4,"componentType":5123,"count":24,"type":"SCALAR","byteOffset":3828},{"bufferView":7,"componentType":5126,"count":64,"type":"VEC3","max":[0.06991908,-0.0133492947,0.418810457],"min":[-0.0699189454,-1.09933829,-0.0160073936]},{"bufferView":7,"componentType":5126,"count":64,"type":"VEC3","byteOffset":12},{"bufferView":7,"componentType":5126,"count":64,"type":"VEC4","byteOffset":24},{"bufferView":7,"componentType":5126,"count":64,"type":"VEC2","byteOffset":40},{"bufferView":6,"componentType":5123,"count":168,"type":"SCALAR"},{"bufferView":9,"componentType":5126,"count":44,"type":"VEC3","max":[0.0556298941,1.36183226,0.009543762],"min":[-0.05562988,0.00102674961,-0.502564669]},{"bufferView":9,"componentType":5126,"count":44,"type":"VEC3","byteOffset":12},{"bufferView":9,"componentType":5126,"count":44,"type":"VEC4","byteOffset":24},{"bufferView":9,"componentType":5126,"count":44,"type":"VEC2","byteOffset":40},{"bufferView":8,"componentType":5123,"count":120,"type":"SCALAR"},{"bufferView":11,"componentType":5126,"count":96,"type":"VEC3","max":[1.06460047,-0.0614728928,-0.0249544382],"min":[-1.064601,-2.42629957,-1.00918758]},{"bufferView":11,"componentType":5126,"count":96,"type":"VEC3","byteOffset":12},{"bufferView":11,"componentType":5126,"count":96,"type":"VEC4","byteOffset":24},{"bufferView":11,"componentType":5126,"count":96,"type":"VEC2","byteOffset":40},{"bufferView":10,"componentType":5123,"count":216,"type":"SCALAR"},{"bufferView":13,"componentType":5126,"count":728,"type":"VEC3","max":[1.11608732,0.000231742859,0.002994299],"min":[-1.11608732,-2.500368,-1.10598135]},{"bufferView":13,"componentType":5126,"count":728,"type":"VEC3","byteOffset":12},{"bufferView":13,"componentType":5126,"count":728,"type":"VEC4","byteOffset":24},{"bufferView":13,"componentType":5126,"count":728,"type":"VEC2","byteOffset":40},{"bufferView":12,"componentType":5123,"count":1320,"type":"SCALAR"},{"bufferView":15,"componentType":5126,"count":354,"type":"VEC3","max":[1.39734614,1.23697209,3.25096178],"min":[-1.39734638,-1.52100539,-3.25096178]},{"bufferView":15,"componentType":5126,"count":354,"type":"VEC3","byteOffset":12},{"bufferView":15,"componentType":5126,"count":354,"type":"VEC4","byteOffset":24},{"bufferView":15,"componentType":5126,"count":354,"type":"VEC2","byteOffset":40},{"bufferView":14,"componentType":5123,"count":558,"type":"SCALAR"},{"bufferView":14,"componentType":5123,"count":36,"type":"SCALAR","byteOffset":1116},{"bufferView":17,"componentType":5126,"count":170,"type":"VEC3","max":[1.1157732,0.423695922,2.35193729],"min":[-1.11577272,-0.423696041,-2.35193777]},{"bufferView":17,"componentType":5126,"count":170,"type":"VEC3","byteOffset":12},{"bufferView":17,"componentType":5126,"count":170,"type":"VEC4","byteOffset":24},{"bufferView":17,"componentType":5126,"count":170,"type":"VEC2","byteOffset":40},{"bufferView":16,"componentType":5123,"count":252,"type":"SCALAR"},{"bufferView":19,"componentType":5126,"count":68,"type":"VEC3","max":[0.960980654,1.43105042,0.4073561],"min":[-0.9219234,-0.0105515718,-0.134785563]},{"bufferView":19,"componentType":5126,"count":68,"type":"VEC3","byteOffset":12},{"bufferView":19,"componentType":5126,"count":68,"type":"VEC4","byteOffset":24},{"bufferView":19,"componentType":5126,"count":68,"type":"VEC2","byteOffset":40},{"bufferView":18,"componentType":5123,"count":108,"type":"SCALAR"},{"bufferView":21,"componentType":5126,"count":159,"type":"VEC3","max":[1.1424799,1.847441,0.440316677],"min":[-1.1424799,-1.84744143,-0.440317035]},{"bufferView":21,"componentType":5126,"count":159,"type":"VEC3","byteOffset":12},{"bufferView":21,"componentType":5126,"count":159,"type":"VEC4","byteOffset":24},{"bufferView":21,"componentType":5126,"count":159,"type":"VEC2","byteOffset":40},{"bufferView":20,"componentType":5123,"count":267,"type":"SCALAR"},{"bufferView":23,"componentType":5126,"count":68,"type":"VEC3","max":[0.9148592,1.43251276,0.4224923],"min":[-0.961976647,-0.005604148,-0.101760358]},{"bufferView":23,"componentType":5126,"count":68,"type":"VEC3","byteOffset":12},{"bufferView":23,"componentType":5126,"count":68,"type":"VEC4","byteOffset":24},{"bufferView":23,"componentType":5126,"count":68,"type":"VEC2","byteOffset":40},{"bufferView":22,"componentType":5123,"count":108,"type":"SCALAR"},{"bufferView":25,"componentType":5126,"count":159,"type":"VEC3","max":[1.1424799,1.847441,0.440316916],"min":[-1.1424799,-1.84744143,-0.440317035]},{"bufferView":25,"componentType":5126,"count":159,"type":"VEC3","byteOffset":12},{"bufferView":25,"componentType":5126,"count":159,"type":"VEC4","byteOffset":24},{"bufferView":25,"componentType":5126,"count":159,"type":"VEC2","byteOffset":40},{"bufferView":24,"componentType":5123,"count":267,"type":"SCALAR"},{"bufferView":27,"componentType":5126,"count":200,"type":"VEC3","max":[0.556890965,0.27608934,0.8568057],"min":[-0.5568893,-0.276089519,-0.8568057]},{"bufferView":27,"componentType":5126,"count":200,"type":"VEC3","byteOffset":12},{"bufferView":27,"componentType":5126,"count":200,"type":"VEC4","byteOffset":24},{"bufferView":27,"componentType":5126,"count":200,"type":"VEC2","byteOffset":40},{"bufferView":26,"componentType":5123,"count":312,"type":"SCALAR"}],"images":[{"name":"Normal_1.png","uri":"Normal_1.png","mimeType":"image/png"},{"name":"Albedo_3.jpg","uri":"Albedo_3.jpg","mimeType":"image/jpeg"},{"name":"Occlusion_1.jpg","uri":"Occlusion_1.jpg","mimeType":"image/jpeg"},{"name":"Albedo_1.png","uri":"Albedo_1.png","mimeType":"image/png"}],"materials":[{"name":"SHIP_Var_C","pbrMetallicRoughness":{"metallicFactor":0,"baseColorTexture":{"index":1,"extensions":{"KHR_texture_transform":{"offset":[0,1],"scale":[1,-1]}}}},"normalTexture":{"index":0,"extensions":{"KHR_texture_transform":{"offset":[0,1],"scale":[1,-1]}}},"occlusionTexture":{"index":2,"extensions":{"KHR_texture_transform":{"offset":[0,1],"scale":[1,-1]}},"strength":0},"doubleSided":true},{"name":"SHIP","pbrMetallicRoughness":{"metallicFactor":0,"baseColorTexture":{"index":3,"extensions":{"KHR_texture_transform":{"offset":[0,1],"scale":[1,-1]}}}},"normalTexture":{"index":0,"extensions":{"KHR_texture_transform":{"offset":[0,1],"scale":[1,-1]}}},"occlusionTexture":{"index":2,"extensions":{"KHR_texture_transform":{"offset":[0,1],"scale":[1,-1]}},"strength":0},"doubleSided":true},{"name":"glass","pbrMetallicRoughness":{"metallicFactor":0,"baseColorTexture":{"index":3,"extensions":{"KHR_texture_transform":{"offset":[0,1],"scale":[1,-1]}}}},"normalTexture":{"index":0,"extensions":{"KHR_texture_transform":{"offset":[0,1],"scale":[1,-1]}}},"occlusionTexture":{"index":2,"extensions":{"KHR_texture_transform":{"offset":[0,1],"scale":[1,-1]}},"strength":0},"alphaMode":"BLEND","doubleSided":true}],"meshes":[{"name":"Object01","primitives":[{"attributes":{"POSITION":0,"NORMAL":1,"TANGENT":2,"TEXCOORD_0":3},"indices":4,"material":0}]},{"name":"Box05","primitives":[{"attributes":{"POSITION":5,"NORMAL":6,"TANGENT":7,"TEXCOORD_0":8},"indices":9,"material":1}]},{"name":"Box02","primitives":[{"attributes":{"POSITION":10,"NORMAL":11,"TANGENT":12,"TEXCOORD_0":13},"indices":14,"material":1},{"attributes":{"POSITION":10,"NORMAL":11,"TANGENT":12,"TEXCOORD_0":13},"indices":15,"material":2}]},{"name":"Object09","primitives":[{"attributes":{"POSITION":16,"NORMAL":17,"TANGENT":18,"TEXCOORD_0":19},"indices":20,"material":1}]},{"name":"Object02","primitives":[{"attributes":{"POSITION":21,"NORMAL":22,"TANGENT":23,"TEXCOORD_0":24},"indices":25,"material":1}]},{"name":"Object26","primitives":[{"attributes":{"POSITION":26,"NORMAL":27,"TANGENT":28,"TEXCOORD_0":29},"indices":30,"material":2}]},{"name":"Object20","primitives":[{"attributes":{"POSITION":31,"NORMAL":32,"TANGENT":33,"TEXCOORD_0":34},"indices":35,"material":1}]},{"name":"Box17","primitives":[{"attributes":{"POSITION":36,"NORMAL":37,"TANGENT":38,"TEXCOORD_0":39},"indices":40,"material":0},{"attributes":{"POSITION":36,"NORMAL":37,"TANGENT":38,"TEXCOORD_0":39},"indices":41,"material":2}]},{"name":"Box14","primitives":[{"attributes":{"POSITION":42,"NORMAL":43,"TANGENT":44,"TEXCOORD_0":45},"indices":46,"material":0}]},{"name":"Object88","primitives":[{"attributes":{"POSITION":47,"NORMAL":48,"TANGENT":49,"TEXCOORD_0":50},"indices":51,"material":0}]},{"name":"Object89","primitives":[{"attributes":{"POSITION":52,"NORMAL":53,"TANGENT":54,"TEXCOORD_0":55},"indices":56,"material":0}]},{"name":"Object18","primitives":[{"attributes":{"POSITION":57,"NORMAL":58,"TANGENT":59,"TEXCOORD_0":60},"indices":61,"material":0}]},{"name":"Object19","primitives":[{"attributes":{"POSITION":62,"NORMAL":63,"TANGENT":64,"TEXCOORD_0":65},"indices":66,"material":0}]},{"name":"Object123","primitives":[{"attributes":{"POSITION":67,"NORMAL":68,"TANGENT":69,"TEXCOORD_0":70},"indices":71,"material":0}]}],"scene":0,"scenes":[{"name":"ship_3(Clone)","nodes":[17]}],"textures":[{"source":0},{"source":1},{"source":2},{"source":3}]}