{"asset":{"version":"2.0","generator":"Unity 2021.3.22f1 glTFast 4.8.3","lastModified":"12-05-2023 06:11:22","assetVersion":"1.0","expiryToken":1},"nodes":[{"name":"tank1(Clone)","mesh":0}],"extensionsRequired":["KHR_texture_transform"],"extensionsUsed":["KHR_texture_transform"],"buffers":[{"uri":"tank1.bin","byteLength":103080}],"bufferViews":[{"buffer":0,"byteLength":6984},{"buffer":0,"byteLength":96096,"byteOffset":6984,"byteStride":48}],"accessors":[{"bufferView":1,"componentType":5126,"count":2002,"type":"VEC3","max":[1.28469634,2.944554,2.508041],"min":[-1.28469634,-0.00151872635,-2.46766138]},{"bufferView":1,"componentType":5126,"count":2002,"type":"VEC3","byteOffset":12},{"bufferView":1,"componentType":5126,"count":2002,"type":"VEC4","byteOffset":24},{"bufferView":1,"componentType":5126,"count":2002,"type":"VEC2","byteOffset":40},{"bufferView":0,"componentType":5123,"count":3492,"type":"SCALAR"}],"images":[{"name":"tex_tan_Normal.png","uri":"tex_tan_Normal.png","mimeType":"image/png"},{"name":"tex_tan.jpg","uri":"tex_tan.jpg","mimeType":"image/jpeg"}],"materials":[{"name":"123.bmp","pbrMetallicRoughness":{"baseColorFactor":[0.9063317,0.9063317,0.9063317,1],"metallicFactor":0.23,"roughnessFactor":0.947,"baseColorTexture":{"index":1,"extensions":{"KHR_texture_transform":{"offset":[0,1],"scale":[1,-1]}}}},"normalTexture":{"index":0,"extensions":{"KHR_texture_transform":{"offset":[0,1],"scale":[1,-1]}},"scale":2}}],"meshes":[{"name":"Untitled","primitives":[{"attributes":{"POSITION":0,"NORMAL":1,"TANGENT":2,"TEXCOORD_0":3},"indices":4,"material":0}]}],"scene":0,"scenes":[{"name":"tank1(Clone)","nodes":[0]}],"textures":[{"source":0},{"source":1}]}