{"asset":{"version":"2.0","generator":"Unity 2021.3.22f1 glTFast 4.8.3","lastModified":"27-06-2023 08:39:20","assetVersion":"1.0","expiryToken":1},"nodes":[{"name":"Hovering_Islands_C","mesh":0,"rotation":[-0.7071068,0,0,0.7071067],"scale":[100,100,100]},{"name":"Hovering_Islands_C(Clone)","children":[0]}],"extensionsRequired":["KHR_texture_transform"],"extensionsUsed":["KHR_texture_transform"],"buffers":[{"uri":"Hovering_Islands_C.bin","byteLength":20208}],"bufferViews":[{"buffer":0,"byteLength":1248},{"buffer":0,"byteLength":18960,"byteOffset":1248,"byteStride":48}],"accessors":[{"bufferView":1,"componentType":5126,"count":395,"type":"VEC3","max":[0.00263443217,0.00108853122,0.000366582768],"min":[-0.00117774517,-0.00171719142,-0.00333093246]},{"bufferView":1,"componentType":5126,"count":395,"type":"VEC3","byteOffset":12},{"bufferView":1,"componentType":5126,"count":395,"type":"VEC4","byteOffset":24},{"bufferView":1,"componentType":5126,"count":395,"type":"VEC2","byteOffset":40},{"bufferView":0,"componentType":5123,"count":624,"type":"SCALAR"}],"images":[{"name":"Hovering_Islands.jpg","uri":"Hovering_Islands.jpg","mimeType":"image/jpeg"}],"materials":[{"name":"Hovering_Islands_C","pbrMetallicRoughness":{"metallicFactor":0,"baseColorTexture":{"index":0,"extensions":{"KHR_texture_transform":{"offset":[0,1],"scale":[1,-1]}}}},"doubleSided":true}],"meshes":[{"name":"Hovering Islands_C","primitives":[{"attributes":{"POSITION":0,"NORMAL":1,"TANGENT":2,"TEXCOORD_0":3},"indices":4,"material":0}]}],"scene":0,"scenes":[{"name":"Hovering_Islands_C(Clone)","nodes":[1]}],"textures":[{"source":0}]}