{"asset":{"version":"2.0","generator":"Unity 2021.3.3f1 glTFast 4.8.3"},"nodes":[{"name":"Mushroom_13(Clone)","mesh":0,"scale":[0.1,0.1,0.1]}],"extensionsRequired":["KHR_texture_transform"],"extensionsUsed":["KHR_texture_transform"],"buffers":[{"uri":"Mushroom_13.bin","byteLength":185784}],"bufferViews":[{"buffer":0,"byteLength":31500},{"buffer":0,"byteLength":154284,"byteOffset":31500,"byteStride":52}],"accessors":[{"bufferView":1,"componentType":5126,"count":2967,"type":"VEC3","max":[83.67253,144.4676,63.04397],"min":[-83.67241,0.316665649,-63.0441666]},{"bufferView":1,"componentType":5126,"count":2967,"type":"VEC3","byteOffset":12},{"bufferView":1,"componentType":5126,"count":2967,"type":"VEC4","byteOffset":24},{"bufferView":1,"componentType":5121,"count":2967,"type":"VEC4","byteOffset":40},{"bufferView":1,"componentType":5126,"count":2967,"type":"VEC2","byteOffset":44},{"bufferView":0,"componentType":5123,"count":15750,"type":"SCALAR"}],"images":[{"name":"Mushroom13_tex.jpg","uri":"Mushroom13_tex.jpg","mimeType":"image/jpeg"}],"materials":[{"name":"Mushroom13_tex","pbrMetallicRoughness":{"metallicFactor":0,"roughnessFactor":0.5,"baseColorTexture":{"index":0,"extensions":{"KHR_texture_transform":{"offset":[0,1],"scale":[1,-1]}}}}}],"meshes":[{"name":"Mushroom_13","primitives":[{"attributes":{"POSITION":0,"NORMAL":1,"TANGENT":2,"TEXCOORD_0":4,"COLOR_0":3},"indices":5,"material":0}]}],"scene":0,"scenes":[{"name":"Mushroom_13(Clone)","nodes":[0]}],"textures":[{"source":0}]}