{"asset":{"version":"2.0","generator":"Unity 2021.3.22f1 glTFast 4.8.3","lastModified":"13-06-2023 13:11:52","assetVersion":"1.0","expiryToken":1},"nodes":[{"name":"Arm_LOD0","mesh":0},{"name":"Satellite(Clone)","children":[0]}],"extensionsRequired":["KHR_texture_transform"],"extensionsUsed":["KHR_texture_transform"],"buffers":[{"uri":"Satellite.bin","byteLength":74280}],"bufferViews":[{"buffer":0,"byteLength":8136},{"buffer":0,"byteLength":66144,"byteOffset":8136,"byteStride":48}],"accessors":[{"bufferView":1,"componentType":5126,"count":1378,"type":"VEC3","max":[0.436097056,0.567736745,0.3764943],"min":[-0.436097056,-0.636620164,-0.3894236]},{"bufferView":1,"componentType":5126,"count":1378,"type":"VEC3","byteOffset":12},{"bufferView":1,"componentType":5126,"count":1378,"type":"VEC4","byteOffset":24},{"bufferView":1,"componentType":5126,"count":1378,"type":"VEC2","byteOffset":40},{"bufferView":0,"componentType":5123,"count":4068,"type":"SCALAR"}],"images":[{"name":"Satellite_Satellite_Normal.png","uri":"Satellite_Satellite_Normal.png","mimeType":"image/png"},{"name":"Satellite_Satellite_AlbedoTransparency.jpg","uri":"Satellite_Satellite_AlbedoTransparency.jpg","mimeType":"image/jpeg"},{"name":"Satellite_Satellite_MetallicSmoothness.jpg","uri":"Satellite_Satellite_MetallicSmoothness.jpg","mimeType":"image/jpeg"}],"materials":[{"name":"Satellite","pbrMetallicRoughness":{"baseColorTexture":{"index":1,"extensions":{"KHR_texture_transform":{"offset":[0,1],"scale":[1,-1]}}},"metallicRoughnessTexture":{"index":2,"extensions":{"KHR_texture_transform":{"offset":[0,1],"scale":[1,-1]}}}},"normalTexture":{"index":0,"extensions":{"KHR_texture_transform":{"offset":[0,1],"scale":[1,-1]}}}}],"meshes":[{"name":"Arm_LOD0","primitives":[{"attributes":{"POSITION":0,"NORMAL":1,"TANGENT":2,"TEXCOORD_0":3},"indices":4,"material":0}]}],"scene":0,"scenes":[{"name":"Satellite(Clone)","nodes":[1]}],"textures":[{"source":0},{"source":1},{"source":2}]}