{"asset":{"version":"2.0","generator":"Unity 2021.3.22f1 glTFast 4.8.3","lastModified":"06-07-2023 12:27:19","assetVersion":"1.0","expiryToken":1},"nodes":[{"name":"Building_02_Legs_01_Bottom","mesh":0,"translation":[-7.4505806E-08,-1.28198051,1.1920929E-07]},{"name":"Building_02_Legs_01_Mid","children":[0],"mesh":1,"translation":[0.0011786446,-0.211128473,0.0032954216]},{"name":"Building_02_Legs_01","children":[1],"mesh":2,"translation":[0,1.75,-1.1920929E-07]},{"name":"Building_02_Leg_01","children":[2],"translation":[0,0.043,1.421],"rotation":[2.18556941E-08,0,0,1]},{"name":"Building_02_Legs_01_Bottom","mesh":0,"translation":[-7.4505806E-08,-1.28198051,1.1920929E-07]},{"name":"Building_02_Legs_01_Mid","children":[4],"mesh":1,"translation":[0.0011786446,-0.211128473,0.0032954216]},{"name":"Building_02_Legs_01","children":[5],"mesh":2,"translation":[0,1.75,-1.1920929E-07]},{"name":"Building_02_Leg_01","children":[6],"translation":[-1.41910219,0.043,-0.07342091],"rotation":[1.50497677E-08,-0.725144267,1.58485332E-08,0.6885971]},{"name":"Building_02_Legs_01_Bottom","mesh":0,"translation":[-7.4505806E-08,-1.28198051,1.1920929E-07]},{"name":"Building_02_Legs_01_Mid","children":[8],"mesh":1,"translation":[0.0011786446,-0.211128473,0.0032954216]},{"name":"Building_02_Legs_01","children":[9],"mesh":2,"translation":[0,1.75,-1.1920929E-07]},{"name":"Building_02_Leg_01","children":[10],"translation":[-0.0216726065,0.043,-1.42083454],"rotation":[1.66672454E-10,-0.9999709,2.18550582E-08,0.00762605667]},{"name":"Building_02_Legs_01_Bottom","mesh":0,"translation":[-7.4505806E-08,-1.28198051,1.1920929E-07]},{"name":"Building_02_Legs_01_Mid","children":[12],"mesh":1,"translation":[0.0011786446,-0.211128473,0.0032954216]},{"name":"Building_02_Legs_01","children":[13],"mesh":2,"translation":[0,1.75,-1.1920929E-07]},{"name":"Building_02_Leg_01","children":[14],"translation":[1.41416,0.043,-0.139258742],"rotation":[1.46775232E-08,0.7409455,-1.61938782E-08,0.6715652]},{"name":"Building_02_Main_01","mesh":3,"translation":[0,1.22,0],"rotation":[2.03375983E-08,-0.366190225,8.003342E-09,0.93054]},{"name":"Building_02_Exhaust_01","mesh":4,"translation":[0.4786233,0.574,0.4354519],"rotation":[1.576913E-08,-0.692402661,1.513294E-08,0.721511364]},{"name":"Building_02_Exhaust_01","mesh":4,"translation":[-0.465576,0.574,0.474345416],"rotation":[1.576913E-08,-0.692402661,1.513294E-08,0.721511364]},{"name":"Building_02_Exhaust_01","mesh":4,"translation":[0.437342763,0.574,-0.5666983],"rotation":[1.576913E-08,-0.692402661,1.513294E-08,0.721511364]},{"name":"Building_02_Exhaust_01","mesh":4,"translation":[-0.5068565,0.574,-0.527804732],"rotation":[1.576913E-08,-0.692402661,1.513294E-08,0.721511364]},{"name":"Building_02_Pipe_01","mesh":5,"translation":[1.02100015,0.967,-0.101999938],"rotation":[8.881784E-16,-0.741377831,-2.08253553E-15,-0.671087861]},{"name":"Building_02_Pipe_01","mesh":5,"translation":[0.007981777,0.967,1.0260514],"rotation":[2.13714756E-15,-0.00382661819,-7.47272054E-16,-0.9999927]},{"name":"Building_02_Pipe_01","mesh":5,"translation":[-1.02473235,0.967,-0.0526218861],"rotation":[2.00967249E-15,0.725055039,1.04260809E-15,-0.68869096]},{"name":"Building_02_Pipe_01","mesh":5,"translation":[-0.0301918089,0.967,-1.02563822],"rotation":[7.703621E-16,0.9998927,2.12893346E-15,-0.0146509707]},{"name":"Building02(Clone)","children":[3,7,11,15,16,17,18,19,20,21,22,23,24]}],"extensionsRequired":["KHR_texture_transform"],"extensionsUsed":["KHR_texture_transform"],"buffers":[{"uri":"Building02.bin","byteLength":210996}],"bufferViews":[{"buffer":0,"byteLength":4608},{"buffer":0,"byteLength":26976,"byteOffset":4608,"byteStride":48},{"buffer":0,"byteLength":4608,"byteOffset":31584},{"buffer":0,"byteLength":22560,"byteOffset":36192,"byteStride":48},{"buffer":0,"byteLength":11328,"byteOffset":58752},{"buffer":0,"byteLength":48480,"byteOffset":70080,"byteStride":48},{"buffer":0,"byteLength":7104,"byteOffset":118560},{"buffer":0,"byteLength":44352,"byteOffset":125664,"byteStride":48},{"buffer":0,"byteLength":2400,"byteOffset":170016},{"buffer":0,"byteLength":15120,"byteOffset":172416,"byteStride":48},{"buffer":0,"byteLength":2628,"byteOffset":187536},{"buffer":0,"byteLength":20832,"byteOffset":190164,"byteStride":48}],"accessors":[{"bufferView":1,"componentType":5126,"count":562,"type":"VEC3","max":[0.223743677,0.04590582,0.22343491],"min":[-0.2266199,-0.249798119,-0.226928726]},{"bufferView":1,"componentType":5126,"count":562,"type":"VEC3","byteOffset":12},{"bufferView":1,"componentType":5126,"count":562,"type":"VEC4","byteOffset":24},{"bufferView":1,"componentType":5126,"count":562,"type":"VEC2","byteOffset":40},{"bufferView":0,"componentType":5123,"count":2304,"type":"SCALAR"},{"bufferView":3,"componentType":5126,"count":470,"type":"VEC3","max":[0.1242066,0.023853302,0.09595437],"min":[-0.10992673,-1.305834,-0.0186396614]},{"bufferView":3,"componentType":5126,"count":470,"type":"VEC3","byteOffset":12},{"bufferView":3,"componentType":5126,"count":470,"type":"VEC4","byteOffset":24},{"bufferView":3,"componentType":5126,"count":470,"type":"VEC2","byteOffset":40},{"bufferView":2,"componentType":5123,"count":2304,"type":"SCALAR"},{"bufferView":5,"componentType":5126,"count":1010,"type":"VEC3","max":[0.296538949,0.548794568,0.285812765],"min":[-0.296538949,-0.548794568,-0.285812765]},{"bufferView":5,"componentType":5126,"count":1010,"type":"VEC3","byteOffset":12},{"bufferView":5,"componentType":5126,"count":1010,"type":"VEC4","byteOffset":24},{"bufferView":5,"componentType":5126,"count":1010,"type":"VEC2","byteOffset":40},{"bufferView":4,"componentType":5123,"count":5664,"type":"SCALAR"},{"bufferView":7,"componentType":5126,"count":924,"type":"VEC3","max":[1.64724326,2.94579244,1.64724314],"min":[-1.64724278,-2.38418579E-07,-1.64724362]},{"bufferView":7,"componentType":5126,"count":924,"type":"VEC3","byteOffset":12},{"bufferView":7,"componentType":5126,"count":924,"type":"VEC4","byteOffset":24},{"bufferView":7,"componentType":5126,"count":924,"type":"VEC2","byteOffset":40},{"bufferView":6,"componentType":5123,"count":3504,"type":"SCALAR"},{"bufferView":6,"componentType":5123,"count":48,"type":"SCALAR","byteOffset":7008},{"bufferView":9,"componentType":5126,"count":315,"type":"VEC3","max":[0.396852374,0.935742259,0.396852374],"min":[-0.396852374,0,-0.396852374]},{"bufferView":9,"componentType":5126,"count":315,"type":"VEC3","byteOffset":12},{"bufferView":9,"componentType":5126,"count":315,"type":"VEC4","byteOffset":24},{"bufferView":9,"componentType":5126,"count":315,"type":"VEC2","byteOffset":40},{"bufferView":8,"componentType":5123,"count":384,"type":"SCALAR"},{"bufferView":8,"componentType":5123,"count":288,"type":"SCALAR","byteOffset":768},{"bufferView":8,"componentType":5123,"count":528,"type":"SCALAR","byteOffset":1344},{"bufferView":11,"componentType":5126,"count":434,"type":"VEC3","max":[0.117709234,0.0430593267,0.48035717],"min":[-0.117709234,-0.0430592522,-0.48035717]},{"bufferView":11,"componentType":5126,"count":434,"type":"VEC3","byteOffset":12},{"bufferView":11,"componentType":5126,"count":434,"type":"VEC4","byteOffset":24},{"bufferView":11,"componentType":5126,"count":434,"type":"VEC2","byteOffset":40},{"bufferView":10,"componentType":5123,"count":1314,"type":"SCALAR"}],"images":[{"name":"Steel_tex.jpg","uri":"Steel_tex.jpg","mimeType":"image/jpeg"},{"name":"Steel_normal_tex.png","uri":"Steel_normal_tex.png","mimeType":"image/png"},{"name":"Base_albedo.jpg","uri":"Base_albedo.jpg","mimeType":"image/jpeg"}],"materials":[{"name":"Building_02_Legs_01_Bottom_mat1","pbrMetallicRoughness":{"baseColorFactor":[0.8745099,0.352941155,0.164705843,1],"metallicFactor":0.74,"roughnessFactor":0.72,"baseColorTexture":{"index":0,"extensions":{"KHR_texture_transform":{"offset":[0,1],"scale":[1,-1]}}}}},{"name":"Building_02_Legs_01_Mid_mat1","pbrMetallicRoughness":{"baseColorFactor":[0.329411715,0.3803921,0.521568537,1],"metallicFactor":0.74,"roughnessFactor":0.72,"baseColorTexture":{"index":0,"extensions":{"KHR_texture_transform":{"offset":[0,1],"scale":[1,-1]}}}}},{"name":"Building_02_Legs_01_mat1","pbrMetallicRoughness":{"baseColorFactor":[0.909804,0.380392134,0.168627411,1],"metallicFactor":0.74,"roughnessFactor":0.72,"baseColorTexture":{"index":0,"extensions":{"KHR_texture_transform":{"offset":[0,1],"scale":[5,-5]}}}}},{"name":"Building_02_Main_01_mat1","pbrMetallicRoughness":{"baseColorFactor":[0.654902,0.7058823,0.792156935,1],"metallicFactor":0.74,"roughnessFactor":0.72,"baseColorTexture":{"index":0,"extensions":{"KHR_texture_transform":{"offset":[0,1],"scale":[5,-5]}}}},"normalTexture":{"index":1,"extensions":{"KHR_texture_transform":{"offset":[0,1],"scale":[1,-1]}}}},{"name":"Building_02_Main_01_mat2","pbrMetallicRoughness":{"baseColorFactor":[0,0.952830136,0.9429954,1],"metallicFactor":0,"roughnessFactor":0.5,"baseColorTexture":{"index":0,"extensions":{"KHR_texture_transform":{"offset":[0,1],"scale":[1,-1]}}}},"emissiveFactor":[0,1,0.9372549]},{"name":"Building_02_Exhaust_01_mat1","pbrMetallicRoughness":{"baseColorFactor":[0.254716963,0.254716963,0.254716963,1],"metallicFactor":0.613,"roughnessFactor":0.802,"baseColorTexture":{"index":0,"extensions":{"KHR_texture_transform":{"offset":[0,1],"scale":[1,-1]}}}}},{"name":"Building_02_Exhaust_01_mat3","pbrMetallicRoughness":{"baseColorFactor":[0.329411715,0.3803921,0.521568537,1],"metallicFactor":0.74,"roughnessFactor":0.72,"baseColorTexture":{"index":0,"extensions":{"KHR_texture_transform":{"offset":[0,1],"scale":[1,-1]}}}}},{"name":"Building_02_Exhaust_01_mat2","pbrMetallicRoughness":{"baseColorFactor":[0.9063317,0.313775867,0,1],"metallicFactor":0,"roughnessFactor":0.5},"emissiveFactor":[1,0,0.0209424086]},{"name":"Building_02_Pipe_01_mat","pbrMetallicRoughness":{"baseColorFactor":[0.329411715,0.3803921,0.521568537,1],"metallicFactor":0.74,"roughnessFactor":0.72,"baseColorTexture":{"index":2,"extensions":{"KHR_texture_transform":{"offset":[0,1],"scale":[1,-1]}}}}}],"meshes":[{"name":"Building_02_Legs_01_Bottom","primitives":[{"attributes":{"POSITION":0,"NORMAL":1,"TANGENT":2,"TEXCOORD_0":3},"indices":4,"material":0}]},{"name":"Building_02_Legs_01_Mid","primitives":[{"attributes":{"POSITION":5,"NORMAL":6,"TANGENT":7,"TEXCOORD_0":8},"indices":9,"material":1}]},{"name":"Building_02_Legs_01","primitives":[{"attributes":{"POSITION":10,"NORMAL":11,"TANGENT":12,"TEXCOORD_0":13},"indices":14,"material":2}]},{"name":"Building_02_Main_01","primitives":[{"attributes":{"POSITION":15,"NORMAL":16,"TANGENT":17,"TEXCOORD_0":18},"indices":19,"material":3},{"attributes":{"POSITION":15,"NORMAL":16,"TANGENT":17,"TEXCOORD_0":18},"indices":20,"material":4}]},{"name":"Building_02_Exhaust_01","primitives":[{"attributes":{"POSITION":21,"NORMAL":22,"TANGENT":23,"TEXCOORD_0":24},"indices":25,"material":5},{"attributes":{"POSITION":21,"NORMAL":22,"TANGENT":23,"TEXCOORD_0":24},"indices":26,"material":6},{"attributes":{"POSITION":21,"NORMAL":22,"TANGENT":23,"TEXCOORD_0":24},"indices":27,"material":7}]},{"name":"Building_02_Pipe_01","primitives":[{"attributes":{"POSITION":28,"NORMAL":29,"TANGENT":30,"TEXCOORD_0":31},"indices":32,"material":8}]}],"scene":0,"scenes":[{"name":"Building02(Clone)","nodes":[25]}],"textures":[{"source":0},{"source":1},{"source":2}]}