{"asset":{"version":"2.0","generator":"Unity 2021.3.22f1 glTFast 4.8.3","lastModified":"25-05-2023 15:36:40","assetVersion":"1.0","expiryToken":1},"nodes":[{"name":"SM_ENV_rock_snow_09_LOD0","mesh":0},{"name":"P_ENV_rock_snow_09(Clone)","children":[0]}],"extensionsRequired":["KHR_texture_transform"],"extensionsUsed":["KHR_texture_transform"],"buffers":[{"uri":"P_ENV_rock_snow_09.bin","byteLength":56008}],"bufferViews":[{"buffer":0,"byteLength":4824},{"buffer":0,"byteLength":51184,"byteOffset":4824,"byteStride":56}],"accessors":[{"bufferView":1,"componentType":5126,"count":914,"type":"VEC3","max":[4.444972,13.3625984,10.1842413],"min":[-4.49387074,-1.53449535,-9.720212]},{"bufferView":1,"componentType":5126,"count":914,"type":"VEC3","byteOffset":12},{"bufferView":1,"componentType":5126,"count":914,"type":"VEC4","byteOffset":24},{"bufferView":1,"componentType":5126,"count":914,"type":"VEC2","byteOffset":40},{"bufferView":1,"componentType":5126,"count":914,"type":"VEC2","byteOffset":48},{"bufferView":0,"componentType":5123,"count":2412,"type":"SCALAR"}],"images":[{"name":"T_ENV_snow_01_N.png","uri":"T_ENV_snow_01_N.png","mimeType":"image/png"},{"name":"T_ENV_snow_01_dark_BC.jpg","uri":"T_ENV_snow_01_dark_BC.jpg","mimeType":"image/jpeg"}],"materials":[{"name":"M_ENV_stone_rock","pbrMetallicRoughness":{"metallicFactor":0,"baseColorTexture":{"index":1,"extensions":{"KHR_texture_transform":{"offset":[0,1],"scale":[1,-1]}}}},"normalTexture":{"index":0,"extensions":{"KHR_texture_transform":{"offset":[0,1],"scale":[1,-1]}}},"doubleSided":true}],"meshes":[{"name":"SM_ENV_rock_snow_09_LOD0","primitives":[{"attributes":{"POSITION":0,"NORMAL":1,"TANGENT":2,"TEXCOORD_0":3,"TEXCOORD_1":4},"indices":5,"material":0}]}],"scene":0,"scenes":[{"name":"P_ENV_rock_snow_09(Clone)","nodes":[1]}],"textures":[{"source":0},{"source":1}]}