{"asset":{"version":"2.0","generator":"Unity 2021.3.3f1 glTFast 4.8.3"},"nodes":[{"name":"Mushroom_07(Clone)","mesh":0,"scale":[0.1,0.1,0.1]}],"extensionsRequired":["KHR_texture_transform"],"extensionsUsed":["KHR_texture_transform"],"buffers":[{"uri":"Mushroom_07.bin","byteLength":46320}],"bufferViews":[{"buffer":0,"byteLength":7920},{"buffer":0,"byteLength":38400,"byteOffset":7920,"byteStride":48}],"accessors":[{"bufferView":1,"componentType":5126,"count":800,"type":"VEC3","max":[69.31091,143.445328,46.0368347],"min":[-69.31079,-0.5514374,-46.0368347]},{"bufferView":1,"componentType":5126,"count":800,"type":"VEC3","byteOffset":12},{"bufferView":1,"componentType":5126,"count":800,"type":"VEC4","byteOffset":24},{"bufferView":1,"componentType":5126,"count":800,"type":"VEC2","byteOffset":40},{"bufferView":0,"componentType":5123,"count":3960,"type":"SCALAR"}],"images":[{"name":"Mushroom07_tex1.jpg","uri":"Mushroom07_tex1.jpg","mimeType":"image/jpeg"}],"materials":[{"name":"Mushroom07_tex1","pbrMetallicRoughness":{"metallicFactor":0,"roughnessFactor":0.5,"baseColorTexture":{"index":0,"extensions":{"KHR_texture_transform":{"offset":[0,1],"scale":[1,-1]}}}}}],"meshes":[{"name":"Mushroom_07","primitives":[{"attributes":{"POSITION":0,"NORMAL":1,"TANGENT":2,"TEXCOORD_0":3},"indices":4,"material":0}]}],"scene":0,"scenes":[{"name":"Mushroom_07(Clone)","nodes":[0]}],"textures":[{"source":0}]}