{"asset":{"version":"2.0","generator":"Unity 2021.3.22f1 glTFast 4.8.3","lastModified":"25-05-2023 15:36:25","assetVersion":"1.0","expiryToken":1},"nodes":[{"name":"P_ENV_ice_big_01(Clone)","mesh":0}],"extensionsRequired":["KHR_texture_transform"],"extensionsUsed":["KHR_texture_transform"],"buffers":[{"uri":"P_ENV_ice_big_01.bin","byteLength":96440}],"bufferViews":[{"buffer":0,"byteLength":11040},{"buffer":0,"byteLength":85400,"byteOffset":11040,"byteStride":56}],"accessors":[{"bufferView":1,"componentType":5126,"count":1525,"type":"VEC3","max":[18.42036,0.143906474,15.5059052],"min":[-16.9818153,-0.166792214,-18.0229187]},{"bufferView":1,"componentType":5126,"count":1525,"type":"VEC3","byteOffset":12},{"bufferView":1,"componentType":5126,"count":1525,"type":"VEC4","byteOffset":24},{"bufferView":1,"componentType":5126,"count":1525,"type":"VEC2","byteOffset":40},{"bufferView":1,"componentType":5126,"count":1525,"type":"VEC2","byteOffset":48},{"bufferView":0,"componentType":5123,"count":5520,"type":"SCALAR"}],"images":[{"name":"T_ENV_snow_01_N.png","uri":"T_ENV_snow_01_N.png","mimeType":"image/png"},{"name":"T_ENV_snow_01_dark_BC.jpg","uri":"T_ENV_snow_01_dark_BC.jpg","mimeType":"image/jpeg"}],"materials":[{"name":"M_ENV_ice_big","pbrMetallicRoughness":{"metallicFactor":0,"roughnessFactor":0.199999988,"baseColorTexture":{"index":1,"extensions":{"KHR_texture_transform":{"offset":[0,1],"scale":[1,-1]}}}},"normalTexture":{"index":0,"extensions":{"KHR_texture_transform":{"offset":[0,1],"scale":[1,-1]}}},"doubleSided":true}],"meshes":[{"name":"SM_ENV_ice_big_01","primitives":[{"attributes":{"POSITION":0,"NORMAL":1,"TANGENT":2,"TEXCOORD_0":3,"TEXCOORD_1":4},"indices":5,"material":0}]}],"scene":0,"scenes":[{"name":"P_ENV_ice_big_01(Clone)","nodes":[0]}],"textures":[{"source":0},{"source":1}]}