{"asset":{"version":"2.0","generator":"Unity 2021.3.22f1 glTFast 4.8.3","lastModified":"06-07-2023 12:27:22","assetVersion":"1.0","expiryToken":1},"nodes":[{"name":"Building_02_Main_01(Clone)","mesh":0}],"extensionsRequired":["KHR_texture_transform"],"extensionsUsed":["KHR_texture_transform"],"buffers":[{"uri":"Building_02_Main_01.bin","byteLength":51456}],"bufferViews":[{"buffer":0,"byteLength":7104},{"buffer":0,"byteLength":44352,"byteOffset":7104,"byteStride":48}],"accessors":[{"bufferView":1,"componentType":5126,"count":924,"type":"VEC3","max":[1.64724326,2.94579244,1.64724314],"min":[-1.64724278,-2.38418579E-07,-1.64724362]},{"bufferView":1,"componentType":5126,"count":924,"type":"VEC3","byteOffset":12},{"bufferView":1,"componentType":5126,"count":924,"type":"VEC4","byteOffset":24},{"bufferView":1,"componentType":5126,"count":924,"type":"VEC2","byteOffset":40},{"bufferView":0,"componentType":5123,"count":3504,"type":"SCALAR"},{"bufferView":0,"componentType":5123,"count":48,"type":"SCALAR","byteOffset":7008}],"images":[{"name":"Steel_normal_tex.png","uri":"Steel_normal_tex.png","mimeType":"image/png"},{"name":"Steel_tex.jpg","uri":"Steel_tex.jpg","mimeType":"image/jpeg"}],"materials":[{"name":"Building_02_Main_01_mat1","pbrMetallicRoughness":{"baseColorFactor":[0.654902,0.7058823,0.792156935,1],"metallicFactor":0.74,"roughnessFactor":0.72,"baseColorTexture":{"index":1,"extensions":{"KHR_texture_transform":{"offset":[0,1],"scale":[5,-5]}}}},"normalTexture":{"index":0,"extensions":{"KHR_texture_transform":{"offset":[0,1],"scale":[1,-1]}}}},{"name":"Building_02_Main_01_mat2","pbrMetallicRoughness":{"baseColorFactor":[0,0.952830136,0.9429954,1],"metallicFactor":0,"roughnessFactor":0.5,"baseColorTexture":{"index":1,"extensions":{"KHR_texture_transform":{"offset":[0,1],"scale":[1,-1]}}}},"emissiveFactor":[0,1,0.9372549]}],"meshes":[{"name":"Building_02_Main_01","primitives":[{"attributes":{"POSITION":0,"NORMAL":1,"TANGENT":2,"TEXCOORD_0":3},"indices":4,"material":0},{"attributes":{"POSITION":0,"NORMAL":1,"TANGENT":2,"TEXCOORD_0":3},"indices":5,"material":1}]}],"scene":0,"scenes":[{"name":"Building_02_Main_01(Clone)","nodes":[0]}],"textures":[{"source":0},{"source":1}]}