{"asset":{"version":"2.0","generator":"Unity 2021.3.22f1 glTFast 4.8.3","lastModified":"07-06-2023 06:42:22","assetVersion":"1.0","expiryToken":1},"nodes":[{"name":"VV_Seer_Hut_Mushroom_03(Clone)","mesh":0}],"extensionsRequired":["KHR_texture_transform"],"extensionsUsed":["KHR_texture_transform"],"buffers":[{"uri":"VV_Seer_Hut_Mushroom_03.bin","byteLength":29232}],"bufferViews":[{"buffer":0,"byteLength":4896},{"buffer":0,"byteLength":24336,"byteOffset":4896,"byteStride":48}],"accessors":[{"bufferView":1,"componentType":5126,"count":507,"type":"VEC3","max":[0.334719241,0.6220076,0.35453856],"min":[-0.334719241,-0.0155540705,-0.354538262]},{"bufferView":1,"componentType":5126,"count":507,"type":"VEC3","byteOffset":12},{"bufferView":1,"componentType":5126,"count":507,"type":"VEC4","byteOffset":24},{"bufferView":1,"componentType":5126,"count":507,"type":"VEC2","byteOffset":40},{"bufferView":0,"componentType":5123,"count":432,"type":"SCALAR"},{"bufferView":0,"componentType":5123,"count":2016,"type":"SCALAR","byteOffset":864}],"images":[{"name":"VV_Seer_Hut_Mushroom_03_Base.jpg","uri":"VV_Seer_Hut_Mushroom_03_Base.jpg","mimeType":"image/jpeg"}],"materials":[{"name":"VV_Seer_Hut_Mushroom_03_mat2","pbrMetallicRoughness":{"metallicFactor":0.061,"roughnessFactor":0.922,"baseColorTexture":{"index":0,"extensions":{"KHR_texture_transform":{"offset":[0,1],"scale":[1,-1]}}}},"doubleSided":true},{"name":"VV_Seer_Hut_Mushroom_03_mat1","pbrMetallicRoughness":{"metallicFactor":0.061,"roughnessFactor":0.922,"baseColorTexture":{"index":0,"extensions":{"KHR_texture_transform":{"offset":[0,1],"scale":[1,-1]}}}},"doubleSided":true}],"meshes":[{"name":"Seer_Hut_Mushroom_03","primitives":[{"attributes":{"POSITION":0,"NORMAL":1,"TANGENT":2,"TEXCOORD_0":3},"indices":4,"material":0},{"attributes":{"POSITION":0,"NORMAL":1,"TANGENT":2,"TEXCOORD_0":3},"indices":5,"material":1}]}],"scene":0,"scenes":[{"name":"VV_Seer_Hut_Mushroom_03(Clone)","nodes":[0]}],"textures":[{"source":0}]}