{"asset":{"version":"2.0","generator":"Unity 2021.3.22f1 glTFast 4.8.3","lastModified":"07-07-2023 12:27:52","assetVersion":"1.0","expiryToken":1},"nodes":[{"name":"arc_sci_base_Domehouse_Dome_B(Clone)","mesh":0}],"extensionsRequired":["KHR_texture_transform"],"extensionsUsed":["KHR_texture_transform"],"buffers":[{"uri":"arc_sci_base_Domehouse_Dome_B.bin","byteLength":82736}],"bufferViews":[{"buffer":0,"byteLength":10944},{"buffer":0,"byteLength":71792,"byteOffset":10944,"byteStride":56}],"accessors":[{"bufferView":1,"componentType":5126,"count":1282,"type":"VEC3","max":[5.130597,6.14185143,5.13028336],"min":[-5.12993145,0.00804233551,-5.130245]},{"bufferView":1,"componentType":5126,"count":1282,"type":"VEC3","byteOffset":12},{"bufferView":1,"componentType":5126,"count":1282,"type":"VEC4","byteOffset":24},{"bufferView":1,"componentType":5126,"count":1282,"type":"VEC2","byteOffset":40},{"bufferView":1,"componentType":5126,"count":1282,"type":"VEC2","byteOffset":48},{"bufferView":0,"componentType":5123,"count":330,"type":"SCALAR"},{"bufferView":0,"componentType":5123,"count":1518,"type":"SCALAR","byteOffset":660},{"bufferView":0,"componentType":5123,"count":3000,"type":"SCALAR","byteOffset":3696},{"bufferView":0,"componentType":5123,"count":624,"type":"SCALAR","byteOffset":9696}],"images":[{"name":"marble_map.png","uri":"marble_map.png","mimeType":"image/png"},{"name":"mis_grungeTypeWhite_basemap01.jpg","uri":"mis_grungeTypeWhite_basemap01.jpg","mimeType":"image/jpeg"}],"materials":[{"name":"mis_grungeTop01","pbrMetallicRoughness":{"baseColorFactor":[0,0.8740257,0.9063317,1],"metallicFactor":0.74,"roughnessFactor":0.410000026,"baseColorTexture":{"index":0,"extensions":{"KHR_texture_transform":{"offset":[0,1],"scale":[1,-1]}}}}},{"name":"mis_grungeTypeBlue","pbrMetallicRoughness":{"baseColorFactor":[1,0.430093378,0.202830046,1],"metallicFactor":0.74,"roughnessFactor":0.585999966,"baseColorTexture":{"index":1,"extensions":{"KHR_texture_transform":{"offset":[0,1],"scale":[1,-1]}}}}},{"name":"mis_grungeTypeWhite","pbrMetallicRoughness":{"baseColorFactor":[0.654902,0.7058823,0.792156935,1],"metallicFactor":0.74,"roughnessFactor":0.569,"baseColorTexture":{"index":0,"extensions":{"KHR_texture_transform":{"offset":[0,1],"scale":[1,-1]}}}}},{"name":"mis_Glass01","pbrMetallicRoughness":{"baseColorFactor":[0.188679159,0.188679159,0.188679159,0.694117665],"metallicFactor":0.81,"roughnessFactor":0.200999975},"alphaMode":"BLEND"}],"meshes":[{"name":"arc_sci_base_Domehouse_Dome_B","primitives":[{"attributes":{"POSITION":0,"NORMAL":1,"TANGENT":2,"TEXCOORD_0":3,"TEXCOORD_1":4},"indices":5,"material":0},{"attributes":{"POSITION":0,"NORMAL":1,"TANGENT":2,"TEXCOORD_0":3,"TEXCOORD_1":4},"indices":6,"material":1},{"attributes":{"POSITION":0,"NORMAL":1,"TANGENT":2,"TEXCOORD_0":3,"TEXCOORD_1":4},"indices":7,"material":2},{"attributes":{"POSITION":0,"NORMAL":1,"TANGENT":2,"TEXCOORD_0":3,"TEXCOORD_1":4},"indices":8,"material":3}]}],"scene":0,"scenes":[{"name":"arc_sci_base_Domehouse_Dome_B(Clone)","nodes":[0]}],"textures":[{"source":0},{"source":1}]}