{"asset":{"version":"2.0","generator":"Unity 2021.3.3f1 glTFast 4.8.3"},"nodes":[{"name":"Mushroom_04(Clone)","mesh":0,"scale":[0.1,0.1,0.1]}],"extensionsRequired":["KHR_texture_transform"],"extensionsUsed":["KHR_texture_transform"],"buffers":[{"uri":"Mushroom_04.bin","byteLength":67860}],"bufferViews":[{"buffer":0,"byteLength":11988},{"buffer":0,"byteLength":55872,"byteOffset":11988,"byteStride":48}],"accessors":[{"bufferView":1,"componentType":5126,"count":1164,"type":"VEC3","max":[35.65623,210.183929,25.7165451],"min":[-35.6562233,-17.8441,-25.7166519]},{"bufferView":1,"componentType":5126,"count":1164,"type":"VEC3","byteOffset":12},{"bufferView":1,"componentType":5126,"count":1164,"type":"VEC4","byteOffset":24},{"bufferView":1,"componentType":5126,"count":1164,"type":"VEC2","byteOffset":40},{"bufferView":0,"componentType":5123,"count":5994,"type":"SCALAR"}],"images":[{"name":"Mushroom04_tex.jpg","uri":"Mushroom04_tex.jpg","mimeType":"image/jpeg"}],"materials":[{"name":"Mushroom04_tex","pbrMetallicRoughness":{"metallicFactor":0,"roughnessFactor":0.5,"baseColorTexture":{"index":0,"extensions":{"KHR_texture_transform":{"offset":[0,1],"scale":[1,-1]}}}}}],"meshes":[{"name":"Mushroom_04","primitives":[{"attributes":{"POSITION":0,"NORMAL":1,"TANGENT":2,"TEXCOORD_0":3},"indices":4,"material":0}]}],"scene":0,"scenes":[{"name":"Mushroom_04(Clone)","nodes":[0]}],"textures":[{"source":0}]}