{"asset":{"version":"2.0","generator":"Unity 2021.3.22f1 glTFast 4.8.3","lastModified":"06-07-2023 12:27:31","assetVersion":"1.0","expiryToken":1},"nodes":[{"name":"Ice03(Clone)","mesh":0}],"extensionsRequired":["KHR_texture_transform"],"extensionsUsed":["KHR_texture_transform"],"buffers":[{"uri":"Ice03.bin","byteLength":21888}],"bufferViews":[{"buffer":0,"byteLength":3264},{"buffer":0,"byteLength":18624,"byteOffset":3264,"byteStride":48}],"accessors":[{"bufferView":1,"componentType":5126,"count":388,"type":"VEC3","max":[0.9333845,0.9386931,0.8117311],"min":[-0.598060668,-0.013312459,-0.557708]},{"bufferView":1,"componentType":5126,"count":388,"type":"VEC3","byteOffset":12},{"bufferView":1,"componentType":5126,"count":388,"type":"VEC4","byteOffset":24},{"bufferView":1,"componentType":5126,"count":388,"type":"VEC2","byteOffset":40},{"bufferView":0,"componentType":5123,"count":1116,"type":"SCALAR"},{"bufferView":0,"componentType":5123,"count":516,"type":"SCALAR","byteOffset":2232}],"images":[{"name":"crystal_normal.png","uri":"crystal_normal.png","mimeType":"image/png"},{"name":"crystal.jpg","uri":"crystal.jpg","mimeType":"image/jpeg"}],"materials":[{"name":"Ice03_mat1","pbrMetallicRoughness":{"baseColorFactor":[0.0476592928,0.5212167,0.5943396,1],"metallicFactor":0.734,"roughnessFactor":0.706,"baseColorTexture":{"index":1,"extensions":{"KHR_texture_transform":{"offset":[0,1],"scale":[3,-3]}}}},"normalTexture":{"index":0,"extensions":{"KHR_texture_transform":{"offset":[0,1],"scale":[1,-1]}}},"emissiveFactor":[0,0.3764706,1]},{"name":"Ice03_mat2","pbrMetallicRoughness":{"baseColorFactor":[0.07662865,0.7735849,0.7735849,1],"metallicFactor":0.546,"roughnessFactor":0.578,"baseColorTexture":{"index":1,"extensions":{"KHR_texture_transform":{"offset":[0,1],"scale":[1,-1]}}}},"normalTexture":{"index":0,"extensions":{"KHR_texture_transform":{"offset":[0,1],"scale":[1,-1]}}},"emissiveFactor":[0,0.130890056,1]}],"meshes":[{"name":"Ice03","primitives":[{"attributes":{"POSITION":0,"NORMAL":1,"TANGENT":2,"TEXCOORD_0":3},"indices":4,"material":0},{"attributes":{"POSITION":0,"NORMAL":1,"TANGENT":2,"TEXCOORD_0":3},"indices":5,"material":1}]}],"scene":0,"scenes":[{"name":"Ice03(Clone)","nodes":[0]}],"textures":[{"source":0},{"source":1}]}