{"asset":{"version":"2.0","generator":"Unity 2021.3.22f1 glTFast 4.8.3","lastModified":"13-06-2023 12:32:21","assetVersion":"1.0","expiryToken":1},"nodes":[{"name":"Rock_3(Clone)","mesh":0}],"extensionsRequired":["KHR_texture_transform"],"extensionsUsed":["KHR_texture_transform"],"buffers":[{"uri":"Rock_3.bin","byteLength":10488}],"bufferViews":[{"buffer":0,"byteLength":600},{"buffer":0,"byteLength":9888,"byteOffset":600,"byteStride":48}],"accessors":[{"bufferView":1,"componentType":5126,"count":206,"type":"VEC3","max":[0.368587643,0.807211,0.4318347],"min":[-0.471434325,-0.004561007,-0.42994535]},{"bufferView":1,"componentType":5126,"count":206,"type":"VEC3","byteOffset":12},{"bufferView":1,"componentType":5126,"count":206,"type":"VEC4","byteOffset":24},{"bufferView":1,"componentType":5126,"count":206,"type":"VEC2","byteOffset":40},{"bufferView":0,"componentType":5123,"count":300,"type":"SCALAR"}],"images":[{"name":"Rocks2_D.jpg","uri":"Rocks2_D.jpg","mimeType":"image/jpeg"}],"materials":[{"name":"RocksBlue_Mat","pbrMetallicRoughness":{"metallicFactor":0,"roughnessFactor":0.5,"baseColorTexture":{"index":0,"extensions":{"KHR_texture_transform":{"offset":[0,1],"scale":[1,-1]}}}}}],"meshes":[{"name":"Rock_3","primitives":[{"attributes":{"POSITION":0,"NORMAL":1,"TANGENT":2,"TEXCOORD_0":3},"indices":4,"material":0}]}],"scene":0,"scenes":[{"name":"Rock_3(Clone)","nodes":[0]}],"textures":[{"source":0}]}