{"asset":{"version":"2.0","generator":"Unity 2021.3.22f1 glTFast 4.8.3","lastModified":"25-05-2023 15:36:29","assetVersion":"1.0","expiryToken":1},"nodes":[{"name":"P_ENV_icicle_04(Clone)","mesh":0}],"extensionsRequired":["KHR_texture_transform"],"extensionsUsed":["KHR_texture_transform"],"buffers":[{"uri":"P_ENV_icicle_04.bin","byteLength":26368}],"bufferViews":[{"buffer":0,"byteLength":3072},{"buffer":0,"byteLength":23296,"byteOffset":3072,"byteStride":56}],"accessors":[{"bufferView":1,"componentType":5126,"count":416,"type":"VEC3","max":[0.456480742,0.0180165768,0.2159546],"min":[-0.5102798,-1.647407,-0.2279461]},{"bufferView":1,"componentType":5126,"count":416,"type":"VEC3","byteOffset":12},{"bufferView":1,"componentType":5126,"count":416,"type":"VEC4","byteOffset":24},{"bufferView":1,"componentType":5126,"count":416,"type":"VEC2","byteOffset":40},{"bufferView":1,"componentType":5126,"count":416,"type":"VEC2","byteOffset":48},{"bufferView":0,"componentType":5123,"count":1536,"type":"SCALAR"}],"images":[{"name":"T_ENV_ice_02_E.jpg","uri":"T_ENV_ice_02_E.jpg","mimeType":"image/jpeg"},{"name":"T_ENV_ice_02_N.png","uri":"T_ENV_ice_02_N.png","mimeType":"image/png"},{"name":"T_ENV_ice_02_BC.jpg","uri":"T_ENV_ice_02_BC.jpg","mimeType":"image/jpeg"}],"materials":[{"name":"M_ENV_icicle","pbrMetallicRoughness":{"baseColorFactor":[0.9009434,0.9872517,1,1],"metallicFactor":0,"roughnessFactor":0.07200003,"baseColorTexture":{"index":2,"extensions":{"KHR_texture_transform":{"offset":[0,1],"scale":[1,-1]}}}},"normalTexture":{"index":1,"extensions":{"KHR_texture_transform":{"offset":[0,1],"scale":[1,-1]}},"scale":0.7},"emissiveTexture":{"index":0,"extensions":{"KHR_texture_transform":{"offset":[0,1],"scale":[1,-1]}}},"emissiveFactor":[0,0.4865309,0.476400763],"doubleSided":true}],"meshes":[{"name":"SM_PROP_icicle_04","primitives":[{"attributes":{"POSITION":0,"NORMAL":1,"TANGENT":2,"TEXCOORD_0":3,"TEXCOORD_1":4},"indices":5,"material":0}]}],"scene":0,"scenes":[{"name":"P_ENV_icicle_04(Clone)","nodes":[0]}],"textures":[{"source":0},{"source":1},{"source":2}]}