{"asset":{"version":"2.0","generator":"Unity 2021.3.22f1 glTFast 4.8.3","lastModified":"06-07-2023 07:38:35","assetVersion":"1.0","expiryToken":1},"nodes":[{"name":"Mushroom_07Group(Clone)","mesh":0}],"extensionsRequired":["KHR_texture_transform"],"extensionsUsed":["KHR_texture_transform"],"buffers":[{"uri":"Mushroom_07Group.bin","byteLength":9540}],"bufferViews":[{"buffer":0,"byteLength":1188},{"buffer":0,"byteLength":8352,"byteOffset":1188,"byteStride":48}],"accessors":[{"bufferView":1,"componentType":5126,"count":174,"type":"VEC3","max":[0.33129406,0.232194483,0.3290999],"min":[-0.2266922,-0.158100426,-0.16421628]},{"bufferView":1,"componentType":5126,"count":174,"type":"VEC3","byteOffset":12},{"bufferView":1,"componentType":5126,"count":174,"type":"VEC4","byteOffset":24},{"bufferView":1,"componentType":5126,"count":174,"type":"VEC2","byteOffset":40},{"bufferView":0,"componentType":5123,"count":594,"type":"SCALAR"}],"images":[{"name":"Egg_House_05.png","uri":"Egg_House_05.png","mimeType":"image/png"}],"materials":[{"name":"Egg_House_05","pbrMetallicRoughness":{"metallicFactor":0,"roughnessFactor":0.5,"baseColorTexture":{"index":0,"extensions":{"KHR_texture_transform":{"offset":[0,1],"scale":[1,-1]}}}},"alphaMode":"MASK","doubleSided":true}],"meshes":[{"name":" Mushroom_07Group","primitives":[{"attributes":{"POSITION":0,"NORMAL":1,"TANGENT":2,"TEXCOORD_0":3},"indices":4,"material":0}]}],"samplers":[{"wrapS":33071,"wrapT":33071}],"scene":0,"scenes":[{"name":"Mushroom_07Group(Clone)","nodes":[0]}],"textures":[{"source":0,"sampler":0}]}