{"asset":{"version":"2.0","generator":"Unity 2021.3.22f1 glTFast 4.8.3","lastModified":"21-07-2023 04:50:17","assetVersion":"1.0","expiryToken":1},"nodes":[{"name":"UC_Mushroom_01_1(Clone)","mesh":0}],"extensionsRequired":["KHR_texture_transform"],"extensionsUsed":["KHR_texture_transform"],"buffers":[{"uri":"UC_Mushroom_01_1.bin","byteLength":79584}],"bufferViews":[{"buffer":0,"byteLength":6912},{"buffer":0,"byteLength":72672,"byteOffset":6912,"byteStride":48}],"accessors":[{"bufferView":1,"componentType":5126,"count":1514,"type":"VEC3","max":[0.186452881,0.387641281,0.143199265],"min":[-0.186452255,0.00174036622,-0.143199146]},{"bufferView":1,"componentType":5126,"count":1514,"type":"VEC3","byteOffset":12},{"bufferView":1,"componentType":5126,"count":1514,"type":"VEC4","byteOffset":24},{"bufferView":1,"componentType":5126,"count":1514,"type":"VEC2","byteOffset":40},{"bufferView":0,"componentType":5123,"count":3456,"type":"SCALAR"}],"images":[{"name":"UC_Mushroom_01_Color.jpg","uri":"UC_Mushroom_01_Color.jpg","mimeType":"image/jpeg"}],"materials":[{"name":"UC_Mushroom_01_mat","pbrMetallicRoughness":{"metallicFactor":0,"roughnessFactor":0.807,"baseColorTexture":{"index":0,"extensions":{"KHR_texture_transform":{"offset":[0,1],"scale":[1,-1]}}}},"emissiveTexture":{"index":0,"extensions":{"KHR_texture_transform":{"offset":[0,1],"scale":[1,-1]}}},"emissiveFactor":[1,1,1]}],"meshes":[{"name":"UC_Mushroom_01","primitives":[{"attributes":{"POSITION":0,"NORMAL":1,"TANGENT":2,"TEXCOORD_0":3},"indices":4,"material":0}]}],"scene":0,"scenes":[{"name":"UC_Mushroom_01_1(Clone)","nodes":[0]}],"textures":[{"source":0}]}