{"asset":{"version":"2.0","generator":"Unity 2021.3.22f1 glTFast 4.8.3","lastModified":"25-05-2023 15:36:17","assetVersion":"1.0","expiryToken":1},"nodes":[{"name":"P_ENV_ice_02(Clone)","mesh":0}],"extensionsRequired":["KHR_texture_transform"],"extensionsUsed":["KHR_texture_transform"],"buffers":[{"uri":"P_ENV_ice_02.bin","byteLength":3584}],"bufferViews":[{"buffer":0,"byteLength":504},{"buffer":0,"byteLength":3080,"byteOffset":504,"byteStride":56}],"accessors":[{"bufferView":1,"componentType":5126,"count":55,"type":"VEC3","max":[1.31053448,0.123744264,1.50663018],"min":[-1.26062632,-0.08186711,-1.27273488]},{"bufferView":1,"componentType":5126,"count":55,"type":"VEC3","byteOffset":12},{"bufferView":1,"componentType":5126,"count":55,"type":"VEC4","byteOffset":24},{"bufferView":1,"componentType":5126,"count":55,"type":"VEC2","byteOffset":40},{"bufferView":1,"componentType":5126,"count":55,"type":"VEC2","byteOffset":48},{"bufferView":0,"componentType":5123,"count":252,"type":"SCALAR"}],"images":[{"name":"T_ENV_snow_01_N.png","uri":"T_ENV_snow_01_N.png","mimeType":"image/png"},{"name":"T_ENV_snow_01_dark_BC.jpg","uri":"T_ENV_snow_01_dark_BC.jpg","mimeType":"image/jpeg"}],"materials":[{"name":"M_ENV_ice_small","pbrMetallicRoughness":{"metallicFactor":0,"roughnessFactor":0.199999988,"baseColorTexture":{"index":1,"extensions":{"KHR_texture_transform":{"offset":[0,1],"scale":[1,-1]}}}},"normalTexture":{"index":0,"extensions":{"KHR_texture_transform":{"offset":[0,1],"scale":[1,-1]}}},"doubleSided":true}],"meshes":[{"name":"SM_ENV_ice_02","primitives":[{"attributes":{"POSITION":0,"NORMAL":1,"TANGENT":2,"TEXCOORD_0":3,"TEXCOORD_1":4},"indices":5,"material":0}]}],"scene":0,"scenes":[{"name":"P_ENV_ice_02(Clone)","nodes":[0]}],"textures":[{"source":0},{"source":1}]}