{"asset":{"version":"2.0","generator":"Unity 2021.3.22f1 glTFast 4.8.3","lastModified":"06-07-2023 12:27:36","assetVersion":"1.0","expiryToken":1},"nodes":[{"name":"Platform_Base","mesh":0,"translation":[0,3.39,0],"rotation":[2.18556941E-08,0,0,1]},{"name":"Platform_Bridge","mesh":1,"translation":[4.925514,3.3880682,0.021476984],"rotation":[2.18556941E-08,0,0,1]},{"name":"Platform_Pillar","mesh":2,"translation":[0,0,1.48]},{"name":"Platform_Stairs","mesh":3,"translation":[-0.048,1.57679927,5.201166]},{"name":"Platform_Railing","mesh":4,"translation":[2.505,3.794,2.584],"rotation":[2.01649364E-08,0.385662675,8.428926E-09,0.9226399]},{"name":"Platform_Railing","mesh":4,"translation":[-2.58400059,3.794,2.50500035],"rotation":[8.298613E-09,-0.3797002,2.02189145E-08,0.9251096]},{"name":"Platform_Railing","mesh":4,"translation":[-2.505,3.794,-2.584],"rotation":[-8.428926E-09,-0.9226399,2.01649364E-08,0.385662675]},{"name":"Platform_Railing","mesh":4,"translation":[2.584,3.794,-2.50500059],"rotation":[2.02189145E-08,0.9251096,-8.298613E-09,0.3797002]},{"name":"Platform_Pillar","mesh":2,"translation":[0,0,-1.31]},{"name":"Platform(Clone)","children":[0,1,2,3,4,5,6,7,8]}],"extensionsRequired":["KHR_texture_transform"],"extensionsUsed":["KHR_texture_transform"],"buffers":[{"uri":"Platform.bin","byteLength":329552}],"bufferViews":[{"buffer":0,"byteLength":5142},{"buffer":0,"byteLength":41376,"byteOffset":5144,"byteStride":48},{"buffer":0,"byteLength":2592,"byteOffset":46520},{"buffer":0,"byteLength":32160,"byteOffset":49112,"byteStride":48},{"buffer":0,"byteLength":14760,"byteOffset":81272},{"buffer":0,"byteLength":127008,"byteOffset":96032,"byteStride":48},{"buffer":0,"byteLength":5880,"byteOffset":223040},{"buffer":0,"byteLength":47040,"byteOffset":228920,"byteStride":48},{"buffer":0,"byteLength":5640,"byteOffset":275960},{"buffer":0,"byteLength":47952,"byteOffset":281600,"byteStride":48}],"accessors":[{"bufferView":1,"componentType":5126,"count":862,"type":"VEC3","max":[3.46221161,0.471250683,3.46221161],"min":[-3.46221161,-1.49011612E-07,-3.46221161]},{"bufferView":1,"componentType":5126,"count":862,"type":"VEC3","byteOffset":12},{"bufferView":1,"componentType":5126,"count":862,"type":"VEC4","byteOffset":24},{"bufferView":1,"componentType":5126,"count":862,"type":"VEC2","byteOffset":40},{"bufferView":0,"componentType":5123,"count":2133,"type":"SCALAR"},{"bufferView":0,"componentType":5123,"count":396,"type":"SCALAR","byteOffset":4266},{"bufferView":0,"componentType":5123,"count":42,"type":"SCALAR","byteOffset":5058},{"bufferView":3,"componentType":5126,"count":670,"type":"VEC3","max":[1.47337723,0.443405658,1.44335353],"min":[-1.47337675,-5.96046448E-08,-1.44335353]},{"bufferView":3,"componentType":5126,"count":670,"type":"VEC3","byteOffset":12},{"bufferView":3,"componentType":5126,"count":670,"type":"VEC4","byteOffset":24},{"bufferView":3,"componentType":5126,"count":670,"type":"VEC2","byteOffset":40},{"bufferView":2,"componentType":5123,"count":1092,"type":"SCALAR"},{"bufferView":2,"componentType":5123,"count":198,"type":"SCALAR","byteOffset":2184},{"bufferView":2,"componentType":5123,"count":6,"type":"SCALAR","byteOffset":2580},{"bufferView":5,"componentType":5126,"count":2646,"type":"VEC3","max":[0.9758604,3.73042631,0.976374745],"min":[-0.9758604,0,-0.976374745]},{"bufferView":5,"componentType":5126,"count":2646,"type":"VEC3","byteOffset":12},{"bufferView":5,"componentType":5126,"count":2646,"type":"VEC4","byteOffset":24},{"bufferView":5,"componentType":5126,"count":2646,"type":"VEC2","byteOffset":40},{"bufferView":4,"componentType":5123,"count":4788,"type":"SCALAR"},{"bufferView":4,"componentType":5123,"count":2328,"type":"SCALAR","byteOffset":9576},{"bufferView":4,"componentType":5123,"count":264,"type":"SCALAR","byteOffset":14232},{"bufferView":7,"componentType":5126,"count":980,"type":"VEC3","max":[1.275279,1.82463038,0.467232764],"min":[-1.28279591,0,-1.74030352]},{"bufferView":7,"componentType":5126,"count":980,"type":"VEC3","byteOffset":12},{"bufferView":7,"componentType":5126,"count":980,"type":"VEC4","byteOffset":24},{"bufferView":7,"componentType":5126,"count":980,"type":"VEC2","byteOffset":40},{"bufferView":6,"componentType":5123,"count":756,"type":"SCALAR"},{"bufferView":6,"componentType":5123,"count":2136,"type":"SCALAR","byteOffset":1512},{"bufferView":6,"componentType":5123,"count":48,"type":"SCALAR","byteOffset":5784},{"bufferView":9,"componentType":5126,"count":999,"type":"VEC3","max":[1.45870662,0.7803937,0.215999782],"min":[-1.45870662,0,-0.215999782]},{"bufferView":9,"componentType":5126,"count":999,"type":"VEC3","byteOffset":12},{"bufferView":9,"componentType":5126,"count":999,"type":"VEC4","byteOffset":24},{"bufferView":9,"componentType":5126,"count":999,"type":"VEC2","byteOffset":40},{"bufferView":8,"componentType":5123,"count":1062,"type":"SCALAR"},{"bufferView":8,"componentType":5123,"count":1758,"type":"SCALAR","byteOffset":2124}],"images":[{"name":"tile02_normal.png","uri":"tile02_normal.png","mimeType":"image/png"},{"name":"Base_albedo.jpg","uri":"Base_albedo.jpg","mimeType":"image/jpeg"},{"name":"marble_normal.png","uri":"marble_normal.png","mimeType":"image/png"},{"name":"tile03_normal.png","uri":"tile03_normal.png","mimeType":"image/png"},{"name":"tile01_normal.png","uri":"tile01_normal.png","mimeType":"image/png"},{"name":"Steel_normal_tex.png","uri":"Steel_normal_tex.png","mimeType":"image/png"},{"name":"marble_map.png","uri":"marble_map.png","mimeType":"image/png"}],"materials":[{"name":"Platform_Base_Metal","pbrMetallicRoughness":{"baseColorFactor":[0.752941251,0.721568644,0.80392164,1],"metallicFactor":0,"roughnessFactor":0.5,"baseColorTexture":{"index":1,"extensions":{"KHR_texture_transform":{"offset":[0,1],"scale":[5,-5]}}}},"normalTexture":{"index":0,"extensions":{"KHR_texture_transform":{"offset":[0,1],"scale":[1,-1]}}}},{"name":"Platform_Base_Warm","pbrMetallicRoughness":{"baseColorFactor":[0.307048738,0.9362462,0.9433962,1],"metallicFactor":0,"roughnessFactor":0.5,"baseColorTexture":{"index":1,"extensions":{"KHR_texture_transform":{"offset":[0,1],"scale":[3,-3]}}}},"normalTexture":{"index":2,"extensions":{"KHR_texture_transform":{"offset":[0,1],"scale":[1,-1]}},"scale":0.1}},{"name":"Platform_Base_Pattern","pbrMetallicRoughness":{"baseColorFactor":[0.301886737,0.301886737,0.301886737,1],"metallicFactor":0.387,"roughnessFactor":0.79,"baseColorTexture":{"index":1,"extensions":{"KHR_texture_transform":{"offset":[0,1],"scale":[2,-2]}}}},"normalTexture":{"index":3,"extensions":{"KHR_texture_transform":{"offset":[0,1],"scale":[1,-1]}},"scale":1.69999993}},{"name":"Platform_Bridge_Warm","pbrMetallicRoughness":{"baseColorFactor":[0.3070487,0.9362462,0.9433962,1],"metallicFactor":0,"roughnessFactor":0.5}},{"name":"Platform_Bridge_Metal","pbrMetallicRoughness":{"baseColorFactor":[0.7529412,0.721568644,0.8039216,1],"metallicFactor":0,"roughnessFactor":0.5,"baseColorTexture":{"index":1,"extensions":{"KHR_texture_transform":{"offset":[0,1],"scale":[4,-4]}}}},"normalTexture":{"index":0,"extensions":{"KHR_texture_transform":{"offset":[0,1],"scale":[1,-1]}}}},{"name":"Platform_Bridge_Pattern","pbrMetallicRoughness":{"baseColorFactor":[0.3018867,0.3018867,0.3018867,1],"metallicFactor":0.387,"roughnessFactor":0.79},"normalTexture":{"index":3,"extensions":{"KHR_texture_transform":{"offset":[0,1],"scale":[1,-1]}},"scale":1.69999993}},{"name":"Platform_Pillar_Warm","pbrMetallicRoughness":{"baseColorFactor":[0.3070487,0.9362462,0.9433962,1],"metallicFactor":0,"roughnessFactor":0.5,"baseColorTexture":{"index":1,"extensions":{"KHR_texture_transform":{"offset":[0,1],"scale":[1,-1]}}}},"normalTexture":{"index":2,"extensions":{"KHR_texture_transform":{"offset":[0,1],"scale":[1,-1]}},"scale":0.1}},{"name":"Platform_Pillar_Metal","pbrMetallicRoughness":{"baseColorFactor":[0.9058824,0.345098,0.156862676,1],"metallicFactor":0,"roughnessFactor":0.5,"baseColorTexture":{"index":1,"extensions":{"KHR_texture_transform":{"offset":[0,1],"scale":[1,-1]}}}},"normalTexture":{"index":2,"extensions":{"KHR_texture_transform":{"offset":[0,1],"scale":[1,-1]}},"scale":0.1}},{"name":"Platform_Pillar_Pattern","pbrMetallicRoughness":{"baseColorFactor":[0.8300114,0.863873,0.89999336,1],"metallicFactor":0,"roughnessFactor":0.5,"baseColorTexture":{"index":1,"extensions":{"KHR_texture_transform":{"offset":[0,1],"scale":[2,-2]}}}},"normalTexture":{"index":4,"extensions":{"KHR_texture_transform":{"offset":[0,1],"scale":[1,-1]}},"scale":1.69999993}},{"name":"Platform_Stairs_Metal","pbrMetallicRoughness":{"baseColorFactor":[0.6765562,0.6574849,0.7075471,1],"metallicFactor":0.304,"roughnessFactor":0.5,"baseColorTexture":{"index":1,"extensions":{"KHR_texture_transform":{"offset":[0,1],"scale":[4,-4]}}}},"normalTexture":{"index":0,"extensions":{"KHR_texture_transform":{"offset":[0,1],"scale":[1,-1]}}}},{"name":"Platform_Stairs_Warm","pbrMetallicRoughness":{"baseColorFactor":[0.3070487,0.9362462,0.9433962,1],"metallicFactor":0,"roughnessFactor":0.5,"baseColorTexture":{"index":1,"extensions":{"KHR_texture_transform":{"offset":[0,1],"scale":[1,-1]}}}},"normalTexture":{"index":5,"extensions":{"KHR_texture_transform":{"offset":[0,1],"scale":[1,-1]}}}},{"name":"Platform_Stairs_Pattern","pbrMetallicRoughness":{"baseColorFactor":[0.462264121,0.462264121,0.462264121,1],"metallicFactor":0,"roughnessFactor":0.5,"baseColorTexture":{"index":1,"extensions":{"KHR_texture_transform":{"offset":[0,1],"scale":[2,-2]}}}},"normalTexture":{"index":4,"extensions":{"KHR_texture_transform":{"offset":[0,1],"scale":[1,-1]}},"scale":1.69999993}},{"name":"Platform_Railing_Metal","pbrMetallicRoughness":{"baseColorFactor":[0.6627451,0.698039234,0.792156935,1],"metallicFactor":0,"roughnessFactor":0.5,"baseColorTexture":{"index":6,"extensions":{"KHR_texture_transform":{"offset":[0,1],"scale":[4,-4]}}}},"normalTexture":{"index":2,"extensions":{"KHR_texture_transform":{"offset":[0,1],"scale":[1,-1]}},"scale":0.1}},{"name":"Platform_Railing_Warm","pbrMetallicRoughness":{"baseColorFactor":[0.9058824,0.345098019,0.1568627,1],"metallicFactor":0,"roughnessFactor":0.5,"baseColorTexture":{"index":1,"extensions":{"KHR_texture_transform":{"offset":[0,1],"scale":[1,-1]}}}},"normalTexture":{"index":2,"extensions":{"KHR_texture_transform":{"offset":[0,1],"scale":[1,-1]}},"scale":0.1}}],"meshes":[{"name":"Platform_Base","primitives":[{"attributes":{"POSITION":0,"NORMAL":1,"TANGENT":2,"TEXCOORD_0":3},"indices":4,"material":0},{"attributes":{"POSITION":0,"NORMAL":1,"TANGENT":2,"TEXCOORD_0":3},"indices":5,"material":1},{"attributes":{"POSITION":0,"NORMAL":1,"TANGENT":2,"TEXCOORD_0":3},"indices":6,"material":2}]},{"name":"Platform_Bridge","primitives":[{"attributes":{"POSITION":7,"NORMAL":8,"TANGENT":9,"TEXCOORD_0":10},"indices":11,"material":3},{"attributes":{"POSITION":7,"NORMAL":8,"TANGENT":9,"TEXCOORD_0":10},"indices":12,"material":4},{"attributes":{"POSITION":7,"NORMAL":8,"TANGENT":9,"TEXCOORD_0":10},"indices":13,"material":5}]},{"name":"Platform_Pillar","primitives":[{"attributes":{"POSITION":14,"NORMAL":15,"TANGENT":16,"TEXCOORD_0":17},"indices":18,"material":6},{"attributes":{"POSITION":14,"NORMAL":15,"TANGENT":16,"TEXCOORD_0":17},"indices":19,"material":7},{"attributes":{"POSITION":14,"NORMAL":15,"TANGENT":16,"TEXCOORD_0":17},"indices":20,"material":8}]},{"name":"Platform_Stairs","primitives":[{"attributes":{"POSITION":21,"NORMAL":22,"TANGENT":23,"TEXCOORD_0":24},"indices":25,"material":9},{"attributes":{"POSITION":21,"NORMAL":22,"TANGENT":23,"TEXCOORD_0":24},"indices":26,"material":10},{"attributes":{"POSITION":21,"NORMAL":22,"TANGENT":23,"TEXCOORD_0":24},"indices":27,"material":11}]},{"name":"Platform_Railing","primitives":[{"attributes":{"POSITION":28,"NORMAL":29,"TANGENT":30,"TEXCOORD_0":31},"indices":32,"material":12},{"attributes":{"POSITION":28,"NORMAL":29,"TANGENT":30,"TEXCOORD_0":31},"indices":33,"material":13}]}],"scene":0,"scenes":[{"name":"Platform(Clone)","nodes":[9]}],"textures":[{"source":0},{"source":1},{"source":2},{"source":3},{"source":4},{"source":5},{"source":6}]}