{"asset":{"version":"2.0","generator":"Unity 2021.3.22f1 glTFast 4.8.3","lastModified":"06-07-2023 12:27:16","assetVersion":"1.0","expiryToken":1},"nodes":[{"name":"Building01_antena2(Clone)","mesh":0}],"extensionsRequired":["KHR_texture_transform"],"extensionsUsed":["KHR_texture_transform"],"buffers":[{"uri":"Building01_antena2.bin","byteLength":236712}],"bufferViews":[{"buffer":0,"byteLength":13392},{"buffer":0,"byteLength":223320,"byteOffset":13392,"byteStride":60}],"accessors":[{"bufferView":1,"componentType":5126,"count":3722,"type":"VEC3","max":[1.36865139,15.33446,0.8731909],"min":[-1.36865616,-9.536743E-07,-0.8731916]},{"bufferView":1,"componentType":5126,"count":3722,"type":"VEC3","byteOffset":12},{"bufferView":1,"componentType":5126,"count":3722,"type":"VEC4","byteOffset":24},{"bufferView":1,"componentType":5121,"count":3722,"type":"VEC4","byteOffset":40},{"bufferView":1,"componentType":5126,"count":3722,"type":"VEC2","byteOffset":44},{"bufferView":1,"componentType":5126,"count":3722,"type":"VEC2","byteOffset":52},{"bufferView":0,"componentType":5123,"count":4392,"type":"SCALAR"},{"bufferView":0,"componentType":5123,"count":2304,"type":"SCALAR","byteOffset":8784}],"images":[{"name":"Steel_tex.jpg","uri":"Steel_tex.jpg","mimeType":"image/jpeg"},{"name":"Base_albedo.jpg","uri":"Base_albedo.jpg","mimeType":"image/jpeg"}],"materials":[{"name":"Building01_mat1","pbrMetallicRoughness":{"baseColorFactor":[0.6792453,0.6792453,0.6792453,1],"metallicFactor":0.784,"roughnessFactor":0.292999983,"baseColorTexture":{"index":0,"extensions":{"KHR_texture_transform":{"offset":[0,1],"scale":[10,-10]}}}}},{"name":"Building01_mat3","pbrMetallicRoughness":{"baseColorFactor":[0,0.8740257,0.9063317,1],"metallicFactor":0.779,"roughnessFactor":0.172999978,"baseColorTexture":{"index":1,"extensions":{"KHR_texture_transform":{"offset":[0,1],"scale":[10,-10]}}}}}],"meshes":[{"name":"Building01_antena2","primitives":[{"attributes":{"POSITION":0,"NORMAL":1,"TANGENT":2,"TEXCOORD_0":4,"TEXCOORD_1":5,"COLOR_0":3},"indices":6,"material":0},{"attributes":{"POSITION":0,"NORMAL":1,"TANGENT":2,"TEXCOORD_0":4,"TEXCOORD_1":5,"COLOR_0":3},"indices":7,"material":1}]}],"scene":0,"scenes":[{"name":"Building01_antena2(Clone)","nodes":[0]}],"textures":[{"source":0},{"source":1}]}