{"asset":{"version":"2.0","generator":"Unity 2021.3.22f1 glTFast 4.8.3","lastModified":"04-07-2023 07:42:58","assetVersion":"1.0","expiryToken":1},"nodes":[{"name":"fantasy_asset12","mesh":0,"rotation":[-0.7071068,0,0,0.7071068],"scale":[100,100,100]},{"name":"fantasy_asset12(Clone)","children":[0]}],"extensionsRequired":["KHR_texture_transform"],"extensionsUsed":["KHR_texture_transform"],"buffers":[{"uri":"fantasy_asset12.bin","byteLength":13536}],"bufferViews":[{"buffer":0,"byteLength":816},{"buffer":0,"byteLength":12720,"byteOffset":816,"byteStride":48}],"accessors":[{"bufferView":1,"componentType":5126,"count":265,"type":"VEC3","max":[0.009126427,0.008837162,0.0349059775],"min":[-0.00788003,-0.009568734,-2.54660845E-05]},{"bufferView":1,"componentType":5126,"count":265,"type":"VEC3","byteOffset":12},{"bufferView":1,"componentType":5126,"count":265,"type":"VEC4","byteOffset":24},{"bufferView":1,"componentType":5126,"count":265,"type":"VEC2","byteOffset":40},{"bufferView":0,"componentType":5123,"count":408,"type":"SCALAR"}],"images":[{"name":"fantasy_asset12_tex_001_min.jpg","uri":"fantasy_asset12_tex_001_min.jpg","mimeType":"image/jpeg"}],"materials":[{"name":"fantasy_asset12_tex_001","pbrMetallicRoughness":{"baseColorFactor":[0.7921569,0.176470548,1,1],"metallicFactor":0,"baseColorTexture":{"index":0,"extensions":{"KHR_texture_transform":{"offset":[0,1],"scale":[1,-1]}}}},"doubleSided":true}],"meshes":[{"name":"fantasy_asset12","primitives":[{"attributes":{"POSITION":0,"NORMAL":1,"TANGENT":2,"TEXCOORD_0":3},"indices":4,"material":0}]}],"scene":0,"scenes":[{"name":"fantasy_asset12(Clone)","nodes":[1]}],"textures":[{"source":0}]}