{"asset":{"version":"2.0","generator":"Unity 2021.3.22f1 glTFast 4.8.3","lastModified":"13-06-2023 13:12:02","assetVersion":"1.0","expiryToken":1},"nodes":[{"name":"Trashbag_1(Clone)","mesh":0}],"extensionsRequired":["KHR_texture_transform"],"extensionsUsed":["KHR_texture_transform"],"buffers":[{"uri":"Trashbag_1.bin","byteLength":111576}],"bufferViews":[{"buffer":0,"byteLength":19752},{"buffer":0,"byteLength":91824,"byteOffset":19752,"byteStride":48}],"accessors":[{"bufferView":1,"componentType":5126,"count":1913,"type":"VEC3","max":[0.5364401,1.12407827,0.453279376],"min":[-0.5364401,0,-0.453279376]},{"bufferView":1,"componentType":5126,"count":1913,"type":"VEC3","byteOffset":12},{"bufferView":1,"componentType":5126,"count":1913,"type":"VEC4","byteOffset":24},{"bufferView":1,"componentType":5126,"count":1913,"type":"VEC2","byteOffset":40},{"bufferView":0,"componentType":5123,"count":9876,"type":"SCALAR"}],"images":[{"name":"Trashbag_Normals.png","uri":"Trashbag_Normals.png","mimeType":"image/png"},{"name":"Trashbag_Albedo.jpg","uri":"Trashbag_Albedo.jpg","mimeType":"image/jpeg"},{"name":"Trashbag_Metallic.jpg","uri":"Trashbag_Metallic.jpg","mimeType":"image/jpeg"}],"materials":[{"name":"Trashbag","pbrMetallicRoughness":{"baseColorTexture":{"index":1,"extensions":{"KHR_texture_transform":{"offset":[0,1],"scale":[1,-1]}}},"metallicRoughnessTexture":{"index":2,"extensions":{"KHR_texture_transform":{"offset":[0,1],"scale":[1,-1]}}}},"normalTexture":{"index":0,"extensions":{"KHR_texture_transform":{"offset":[0,1],"scale":[1,-1]}}},"occlusionTexture":{"index":2,"extensions":{"KHR_texture_transform":{"offset":[0,1],"scale":[1,-1]}}}}],"meshes":[{"name":"Trashbag_1","primitives":[{"attributes":{"POSITION":0,"NORMAL":1,"TANGENT":2,"TEXCOORD_0":3},"indices":4,"material":0}]}],"scene":0,"scenes":[{"name":"Trashbag_1(Clone)","nodes":[0]}],"textures":[{"source":0},{"source":1},{"source":2}]}