{"asset":{"version":"2.0","generator":"Unity 2021.3.22f1 glTFast 4.8.3","lastModified":"05-06-2023 13:36:52","assetVersion":"1.0","expiryToken":1},"nodes":[{"name":"Stone_01(Clone)","mesh":0}],"extensionsRequired":["KHR_texture_transform"],"extensionsUsed":["KHR_texture_transform"],"buffers":[{"uri":"Stone_01.bin","byteLength":55728}],"bufferViews":[{"buffer":0,"byteLength":7056},{"buffer":0,"byteLength":48672,"byteOffset":7056,"byteStride":48}],"accessors":[{"bufferView":1,"componentType":5126,"count":1014,"type":"VEC3","max":[0.8173356,2.58001,0.647117853],"min":[-0.8933947,-0.0148563385,-0.577143431]},{"bufferView":1,"componentType":5126,"count":1014,"type":"VEC3","byteOffset":12},{"bufferView":1,"componentType":5126,"count":1014,"type":"VEC4","byteOffset":24},{"bufferView":1,"componentType":5126,"count":1014,"type":"VEC2","byteOffset":40},{"bufferView":0,"componentType":5123,"count":3384,"type":"SCALAR"},{"bufferView":0,"componentType":5123,"count":144,"type":"SCALAR","byteOffset":6768}],"images":[{"name":"Rock_04_Normal.png","uri":"Rock_04_Normal.png","mimeType":"image/png"},{"name":"Rock_04_Color.jpg","uri":"Rock_04_Color.jpg","mimeType":"image/jpeg"},{"name":"Rock_04_AO.jpg","uri":"Rock_04_AO.jpg","mimeType":"image/jpeg"}],"materials":[{"name":"Large_Stones_Stone_04_mat","pbrMetallicRoughness":{"metallicFactor":0,"baseColorTexture":{"index":1,"extensions":{"KHR_texture_transform":{"offset":[0,1],"scale":[2,-2]}}}},"normalTexture":{"index":0,"extensions":{"KHR_texture_transform":{"offset":[0,1],"scale":[1,-1]}},"scale":2},"occlusionTexture":{"index":2,"extensions":{"KHR_texture_transform":{"offset":[0,1],"scale":[2,-2]}}}},{"name":"Large_Stones_Stone_Design_04_mat","pbrMetallicRoughness":{"baseColorFactor":[0,1,1,1],"metallicFactor":0},"emissiveFactor":[0,1,1]}],"meshes":[{"name":"Stone_01","primitives":[{"attributes":{"POSITION":0,"NORMAL":1,"TANGENT":2,"TEXCOORD_0":3},"indices":4,"material":0},{"attributes":{"POSITION":0,"NORMAL":1,"TANGENT":2,"TEXCOORD_0":3},"indices":5,"material":1}]}],"scene":0,"scenes":[{"name":"Stone_01(Clone)","nodes":[0]}],"textures":[{"source":0},{"source":1},{"source":2}]}