{"asset":{"version":"2.0","generator":"Unity 2021.3.22f1 glTFast 4.8.3","lastModified":"06-07-2023 12:27:12","assetVersion":"1.0","expiryToken":1},"nodes":[{"name":"Building01_Dome1(Clone)","mesh":0}],"extensionsRequired":["KHR_texture_transform"],"extensionsUsed":["KHR_texture_transform"],"buffers":[{"uri":"Building01_Dome1.bin","byteLength":58708}],"bufferViews":[{"buffer":0,"byteLength":9984},{"buffer":0,"byteLength":48724,"byteOffset":9984,"byteStride":52}],"accessors":[{"bufferView":1,"componentType":5126,"count":937,"type":"VEC3","max":[6.94674969,7.10038662,6.9467473],"min":[-6.946746,0.233317852,-6.946752]},{"bufferView":1,"componentType":5126,"count":937,"type":"VEC3","byteOffset":12},{"bufferView":1,"componentType":5126,"count":937,"type":"VEC4","byteOffset":24},{"bufferView":1,"componentType":5121,"count":937,"type":"VEC4","byteOffset":40},{"bufferView":1,"componentType":5126,"count":937,"type":"VEC2","byteOffset":44},{"bufferView":0,"componentType":5123,"count":2094,"type":"SCALAR"},{"bufferView":0,"componentType":5123,"count":2898,"type":"SCALAR","byteOffset":4188}],"images":[{"name":"marble_map.png","uri":"marble_map.png","mimeType":"image/png"},{"name":"Base_albedo.jpg","uri":"Base_albedo.jpg","mimeType":"image/jpeg"}],"materials":[{"name":"Building01_mat2","pbrMetallicRoughness":{"baseColorFactor":[0.654902,0.7058823,0.792156935,1],"metallicFactor":0.74,"roughnessFactor":0.569,"baseColorTexture":{"index":0,"extensions":{"KHR_texture_transform":{"offset":[0,1],"scale":[10,-10]}}}}},{"name":"Building01_mat3","pbrMetallicRoughness":{"baseColorFactor":[0,0.8740257,0.9063317,1],"metallicFactor":0.779,"roughnessFactor":0.172999978,"baseColorTexture":{"index":1,"extensions":{"KHR_texture_transform":{"offset":[0,1],"scale":[10,-10]}}}}}],"meshes":[{"name":"Building01_Dome1","primitives":[{"attributes":{"POSITION":0,"NORMAL":1,"TANGENT":2,"TEXCOORD_0":4,"COLOR_0":3},"indices":5,"material":0},{"attributes":{"POSITION":0,"NORMAL":1,"TANGENT":2,"TEXCOORD_0":4,"COLOR_0":3},"indices":6,"material":1}]}],"scene":0,"scenes":[{"name":"Building01_Dome1(Clone)","nodes":[0]}],"textures":[{"source":0},{"source":1}]}