{"asset":{"version":"2.0","generator":"Unity 2021.3.22f1 glTFast 4.8.3","lastModified":"26-05-2023 05:57:01","assetVersion":"1.0","expiryToken":1},"nodes":[{"name":"Mushroom_02_A(Clone)","mesh":0}],"extensionsRequired":["KHR_texture_transform"],"extensionsUsed":["KHR_texture_transform"],"buffers":[{"uri":"Mushroom_02_A.bin","byteLength":3076}],"bufferViews":[{"buffer":0,"byteLength":330},{"buffer":0,"byteLength":2744,"byteOffset":332,"byteStride":56}],"accessors":[{"bufferView":1,"componentType":5126,"count":49,"type":"VEC3","max":[0.08585811,0.4475041,0.0649397746],"min":[-0.08434193,0,-0.112862147]},{"bufferView":1,"componentType":5126,"count":49,"type":"VEC3","byteOffset":12},{"bufferView":1,"componentType":5126,"count":49,"type":"VEC4","byteOffset":24},{"bufferView":1,"componentType":5126,"count":49,"type":"VEC2","byteOffset":40},{"bufferView":1,"componentType":5126,"count":49,"type":"VEC2","byteOffset":48},{"bufferView":0,"componentType":5123,"count":165,"type":"SCALAR"}],"images":[{"name":"Environment.png","uri":"Environment.png","mimeType":"image/png"}],"materials":[{"name":"Environment","pbrMetallicRoughness":{"metallicFactor":0,"roughnessFactor":0.5,"baseColorTexture":{"index":0,"extensions":{"KHR_texture_transform":{"offset":[0,1],"scale":[1,-1]}}}},"alphaMode":"MASK","alphaCutoff":0.5074627,"doubleSided":true}],"meshes":[{"name":"Mushroom_02_a","primitives":[{"attributes":{"POSITION":0,"NORMAL":1,"TANGENT":2,"TEXCOORD_0":3,"TEXCOORD_1":4},"indices":5,"material":0}]}],"scene":0,"scenes":[{"name":"Mushroom_02_A(Clone)","nodes":[0]}],"textures":[{"source":0}]}