{"asset":{"version":"2.0","generator":"Unity 2021.3.22f1 glTFast 4.8.3","lastModified":"07-07-2023 07:44:56","assetVersion":"1.0","expiryToken":1},"nodes":[{"name":"bush (1)","mesh":0,"translation":[-15.5213394,0.839653,35.35729]},{"name":"Plant02 (2)","mesh":1,"translation":[-16.4917259,1.37967491,35.3904648]},{"name":"Plant01 (3)","mesh":2,"translation":[-19.8718719,2.02629471,34.96982]},{"name":"Plant02 (1)","mesh":1,"translation":[-20.6766357,2.02628613,33.01538]},{"name":"rock6 (1)","mesh":3,"translation":[-20.9500656,2.02630234,34.86077]},{"name":"rock3","mesh":4,"translation":[-18.6421967,1.6526432,34.5579453]},{"name":"Pine01 (3)","mesh":5,"translation":[-18.35848,1.6526432,34.22363]},{"name":"Pine02 (5)","mesh":6,"translation":[-21.0701046,2.02629185,34.3243446]},{"name":"Pine02 (4)","mesh":6,"translation":[-21.3333035,2.02628517,33.9212761]},{"name":"Pine03 (3)","mesh":7,"translation":[-21.4914742,2.02629662,34.639183]},{"name":"rock2","mesh":8,"translation":[-17.9319363,1.652626,36.0249557]},{"name":"Plant01 (2)","mesh":2,"translation":[-18.8008957,1.652626,36.17456]},{"name":"Pine02 (3)","mesh":6,"translation":[-16.8771,1.37968349,35.2677]},{"name":"Pine01 (2)","mesh":5,"translation":[-18.88835,1.65263176,35.86786]},{"name":"Pine02 (2)","mesh":6,"translation":[-19.3091011,1.652626,36.22188]},{"name":"Pine03 (2)","mesh":7,"translation":[-19.3116779,1.652626,35.80609]},{"name":"rockL_wood (2)","mesh":9,"translation":[-20.41,0.470000267,34.19],"rotation":[0,0.9552281,0,0.295870543],"scale":[1.5568,1.5568,1.5568]},{"name":"rockM_wood (1)","mesh":10,"translation":[-16.5953674,0.3800001,35.3971]},{"name":"rockL_wood (1)","mesh":9,"translation":[-18.4685478,0.220000267,35.1583366],"scale":[1.4331,1.4331,1.4331]},{"name":"Woodland_Hill_06(Clone)","children":[0,1,2,3,4,5,6,7,8,9,10,11,12,13,14,15,16,17,18]}],"extensionsRequired":["KHR_texture_transform"],"extensionsUsed":["KHR_texture_transform"],"buffers":[{"uri":"Woodland_Hill_06.bin","byteLength":59704}],"bufferViews":[{"buffer":0,"byteLength":336},{"buffer":0,"byteLength":2160,"byteOffset":336,"byteStride":48},{"buffer":0,"byteLength":1392,"byteOffset":2496},{"buffer":0,"byteLength":7872,"byteOffset":3888,"byteStride":48},{"buffer":0,"byteLength":696,"byteOffset":11760},{"buffer":0,"byteLength":3936,"byteOffset":12456,"byteStride":48},{"buffer":0,"byteLength":222,"byteOffset":16392},{"buffer":0,"byteLength":2064,"byteOffset":16616,"byteStride":48},{"buffer":0,"byteLength":84,"byteOffset":18680},{"buffer":0,"byteLength":672,"byteOffset":18764,"byteStride":48},{"buffer":0,"byteLength":840,"byteOffset":19436},{"buffer":0,"byteLength":6624,"byteOffset":20276,"byteStride":48},{"buffer":0,"byteLength":840,"byteOffset":26900},{"buffer":0,"byteLength":6624,"byteOffset":27740,"byteStride":48},{"buffer":0,"byteLength":840,"byteOffset":34364},{"buffer":0,"byteLength":6624,"byteOffset":35204,"byteStride":48},{"buffer":0,"byteLength":396,"byteOffset":41828},{"buffer":0,"byteLength":2448,"byteOffset":42224,"byteStride":48},{"buffer":0,"byteLength":798,"byteOffset":44672},{"buffer":0,"byteLength":7008,"byteOffset":45472,"byteStride":48},{"buffer":0,"byteLength":744,"byteOffset":52480},{"buffer":0,"byteLength":6480,"byteOffset":53224,"byteStride":48}],"accessors":[{"bufferView":1,"componentType":5126,"count":45,"type":"VEC3","max":[0.244175851,0.336816669,0.2392053],"min":[-0.243519008,-0.00693789124,-0.248489469]},{"bufferView":1,"componentType":5126,"count":45,"type":"VEC3","byteOffset":12},{"bufferView":1,"componentType":5126,"count":45,"type":"VEC4","byteOffset":24},{"bufferView":1,"componentType":5126,"count":45,"type":"VEC2","byteOffset":40},{"bufferView":0,"componentType":5123,"count":168,"type":"SCALAR"},{"bufferView":3,"componentType":5126,"count":164,"type":"VEC3","max":[0.220007986,0.165430948,0.235315353],"min":[-0.250359237,0,-0.25236842]},{"bufferView":3,"componentType":5126,"count":164,"type":"VEC3","byteOffset":12},{"bufferView":3,"componentType":5126,"count":164,"type":"VEC4","byteOffset":24},{"bufferView":3,"componentType":5126,"count":164,"type":"VEC2","byteOffset":40},{"bufferView":2,"componentType":5123,"count":696,"type":"SCALAR"},{"bufferView":5,"componentType":5126,"count":82,"type":"VEC3","max":[0.09613198,0.116219938,0.156106442],"min":[-0.179490358,0,-0.173442215]},{"bufferView":5,"componentType":5126,"count":82,"type":"VEC3","byteOffset":12},{"bufferView":5,"componentType":5126,"count":82,"type":"VEC4","byteOffset":24},{"bufferView":5,"componentType":5126,"count":82,"type":"VEC2","byteOffset":40},{"bufferView":4,"componentType":5123,"count":348,"type":"SCALAR"},{"bufferView":7,"componentType":5126,"count":43,"type":"VEC3","max":[0.4046017,0.5540498,0.3990183],"min":[-0.410289824,0.00139689445,-0.33743763]},{"bufferView":7,"componentType":5126,"count":43,"type":"VEC3","byteOffset":12},{"bufferView":7,"componentType":5126,"count":43,"type":"VEC4","byteOffset":24},{"bufferView":7,"componentType":5126,"count":43,"type":"VEC2","byteOffset":40},{"bufferView":6,"componentType":5123,"count":111,"type":"SCALAR"},{"bufferView":9,"componentType":5126,"count":14,"type":"VEC3","max":[0.0785788745,0.134978935,0.09981467],"min":[-0.121019647,-0.01593694,-0.117814139]},{"bufferView":9,"componentType":5126,"count":14,"type":"VEC3","byteOffset":12},{"bufferView":9,"componentType":5126,"count":14,"type":"VEC4","byteOffset":24},{"bufferView":9,"componentType":5126,"count":14,"type":"VEC2","byteOffset":40},{"bufferView":8,"componentType":5123,"count":42,"type":"SCALAR"},{"bufferView":11,"componentType":5126,"count":138,"type":"VEC3","max":[0.305760443,1.09911633,0.3073563],"min":[-0.326451123,-1.1920929E-07,-0.329849422]},{"bufferView":11,"componentType":5126,"count":138,"type":"VEC3","byteOffset":12},{"bufferView":11,"componentType":5126,"count":138,"type":"VEC4","byteOffset":24},{"bufferView":11,"componentType":5126,"count":138,"type":"VEC2","byteOffset":40},{"bufferView":10,"componentType":5123,"count":420,"type":"SCALAR"},{"bufferView":13,"componentType":5126,"count":138,"type":"VEC3","max":[0.266107321,0.8635999,0.27189678],"min":[-0.264507771,-5.96046448E-08,-0.284521759]},{"bufferView":13,"componentType":5126,"count":138,"type":"VEC3","byteOffset":12},{"bufferView":13,"componentType":5126,"count":138,"type":"VEC4","byteOffset":24},{"bufferView":13,"componentType":5126,"count":138,"type":"VEC2","byteOffset":40},{"bufferView":12,"componentType":5123,"count":420,"type":"SCALAR"},{"bufferView":15,"componentType":5126,"count":138,"type":"VEC3","max":[0.242252111,1.0523144,0.264515936],"min":[-0.258144855,-1.1920929E-07,-0.2572108]},{"bufferView":15,"componentType":5126,"count":138,"type":"VEC3","byteOffset":12},{"bufferView":15,"componentType":5126,"count":138,"type":"VEC4","byteOffset":24},{"bufferView":15,"componentType":5126,"count":138,"type":"VEC2","byteOffset":40},{"bufferView":14,"componentType":5123,"count":420,"type":"SCALAR"},{"bufferView":17,"componentType":5126,"count":51,"type":"VEC3","max":[0.400981128,0.07385806,0.3105318],"min":[-0.49974376,-0.008935668,-0.399887264]},{"bufferView":17,"componentType":5126,"count":51,"type":"VEC3","byteOffset":12},{"bufferView":17,"componentType":5126,"count":51,"type":"VEC4","byteOffset":24},{"bufferView":17,"componentType":5126,"count":51,"type":"VEC2","byteOffset":40},{"bufferView":16,"componentType":5123,"count":198,"type":"SCALAR"},{"bufferView":19,"componentType":5126,"count":146,"type":"VEC3","max":[1.021558,0.99969,1.013284],"min":[-1.02605891,0.0014873147,-0.965484142]},{"bufferView":19,"componentType":5126,"count":146,"type":"VEC3","byteOffset":12},{"bufferView":19,"componentType":5126,"count":146,"type":"VEC4","byteOffset":24},{"bufferView":19,"componentType":5126,"count":146,"type":"VEC2","byteOffset":40},{"bufferView":18,"componentType":5123,"count":354,"type":"SCALAR"},{"bufferView":18,"componentType":5123,"count":45,"type":"SCALAR","byteOffset":708},{"bufferView":21,"componentType":5126,"count":135,"type":"VEC3","max":[0.946814954,0.99969,0.6527515],"min":[-0.970009744,0.00148803,-0.629674256]},{"bufferView":21,"componentType":5126,"count":135,"type":"VEC3","byteOffset":12},{"bufferView":21,"componentType":5126,"count":135,"type":"VEC4","byteOffset":24},{"bufferView":21,"componentType":5126,"count":135,"type":"VEC2","byteOffset":40},{"bufferView":20,"componentType":5123,"count":330,"type":"SCALAR"},{"bufferView":20,"componentType":5123,"count":42,"type":"SCALAR","byteOffset":660}],"images":[{"name":"Grass2_D.jpg","uri":"Grass2_D.jpg","mimeType":"image/jpeg"},{"name":"Plants02_D.jpg","uri":"Plants02_D.jpg","mimeType":"image/jpeg"},{"name":"Rocks_D.jpg","uri":"Rocks_D.jpg","mimeType":"image/jpeg"},{"name":"Plants01_D.jpg","uri":"Plants01_D.jpg","mimeType":"image/jpeg"},{"name":"Wood_rock_D.jpg","uri":"Wood_rock_D.jpg","mimeType":"image/jpeg"}],"materials":[{"name":"Grass02","pbrMetallicRoughness":{"metallicFactor":0,"baseColorTexture":{"index":0,"extensions":{"KHR_texture_transform":{"offset":[0,1],"scale":[1,-1]}}}},"doubleSided":true},{"name":"Plants02","pbrMetallicRoughness":{"metallicFactor":0,"baseColorTexture":{"index":1,"extensions":{"KHR_texture_transform":{"offset":[0,1],"scale":[1,-1]}}}},"doubleSided":true},{"name":"Rocks01","pbrMetallicRoughness":{"metallicFactor":0,"baseColorTexture":{"index":2,"extensions":{"KHR_texture_transform":{"offset":[0,1],"scale":[1,-1]}}}},"doubleSided":true},{"name":"Plants01","pbrMetallicRoughness":{"metallicFactor":0,"baseColorTexture":{"index":3,"extensions":{"KHR_texture_transform":{"offset":[0,1],"scale":[1,-1]}}}},"doubleSided":true},{"name":"WoodRocks","pbrMetallicRoughness":{"metallicFactor":0,"baseColorTexture":{"index":4,"extensions":{"KHR_texture_transform":{"offset":[0,1],"scale":[1,-1]}}}},"doubleSided":true}],"meshes":[{"name":"bush","primitives":[{"attributes":{"POSITION":0,"NORMAL":1,"TANGENT":2,"TEXCOORD_0":3},"indices":4,"material":0}]},{"name":"Plant02","primitives":[{"attributes":{"POSITION":5,"NORMAL":6,"TANGENT":7,"TEXCOORD_0":8},"indices":9,"material":1}]},{"name":"Plant01","primitives":[{"attributes":{"POSITION":10,"NORMAL":11,"TANGENT":12,"TEXCOORD_0":13},"indices":14,"material":1}]},{"name":"rock6","primitives":[{"attributes":{"POSITION":15,"NORMAL":16,"TANGENT":17,"TEXCOORD_0":18},"indices":19,"material":2}]},{"name":"rock3","primitives":[{"attributes":{"POSITION":20,"NORMAL":21,"TANGENT":22,"TEXCOORD_0":23},"indices":24,"material":2}]},{"name":"Pine01","primitives":[{"attributes":{"POSITION":25,"NORMAL":26,"TANGENT":27,"TEXCOORD_0":28},"indices":29,"material":3}]},{"name":"Pine02","primitives":[{"attributes":{"POSITION":30,"NORMAL":31,"TANGENT":32,"TEXCOORD_0":33},"indices":34,"material":3}]},{"name":"Pine03","primitives":[{"attributes":{"POSITION":35,"NORMAL":36,"TANGENT":37,"TEXCOORD_0":38},"indices":39,"material":3}]},{"name":"rock2","primitives":[{"attributes":{"POSITION":40,"NORMAL":41,"TANGENT":42,"TEXCOORD_0":43},"indices":44,"material":2}]},{"name":"rockL_wood","primitives":[{"attributes":{"POSITION":45,"NORMAL":46,"TANGENT":47,"TEXCOORD_0":48},"indices":49,"material":4},{"attributes":{"POSITION":45,"NORMAL":46,"TANGENT":47,"TEXCOORD_0":48},"indices":50,"material":0}]},{"name":"rockM_wood","primitives":[{"attributes":{"POSITION":51,"NORMAL":52,"TANGENT":53,"TEXCOORD_0":54},"indices":55,"material":4},{"attributes":{"POSITION":51,"NORMAL":52,"TANGENT":53,"TEXCOORD_0":54},"indices":56,"material":0}]}],"scene":0,"scenes":[{"name":"Woodland_Hill_06(Clone)","nodes":[19]}],"textures":[{"source":0},{"source":1},{"source":2},{"source":3},{"source":4}]}