{"asset":{"version":"2.0","generator":"Unity 2021.3.22f1 glTFast 4.8.3","lastModified":"06-07-2023 12:27:21","assetVersion":"1.0","expiryToken":1},"nodes":[{"name":"Building_02_Legs_01_Bottom","mesh":0,"translation":[-7.4505806E-08,-1.28198051,1.1920929E-07]},{"name":"Building_02_Legs_01_Mid","children":[0],"mesh":1,"translation":[0.0011786446,-0.211128473,0.0032954216]},{"name":"Building_02_Legs_01","children":[1],"mesh":2,"translation":[0,1.75,-1.1920929E-07]},{"name":"Building_02_Leg_01(Clone)","children":[2]}],"extensionsRequired":["KHR_texture_transform"],"extensionsUsed":["KHR_texture_transform"],"buffers":[{"uri":"Building_02_Leg_01.bin","byteLength":118560}],"bufferViews":[{"buffer":0,"byteLength":4608},{"buffer":0,"byteLength":26976,"byteOffset":4608,"byteStride":48},{"buffer":0,"byteLength":4608,"byteOffset":31584},{"buffer":0,"byteLength":22560,"byteOffset":36192,"byteStride":48},{"buffer":0,"byteLength":11328,"byteOffset":58752},{"buffer":0,"byteLength":48480,"byteOffset":70080,"byteStride":48}],"accessors":[{"bufferView":1,"componentType":5126,"count":562,"type":"VEC3","max":[0.223743677,0.04590582,0.22343491],"min":[-0.2266199,-0.249798119,-0.226928726]},{"bufferView":1,"componentType":5126,"count":562,"type":"VEC3","byteOffset":12},{"bufferView":1,"componentType":5126,"count":562,"type":"VEC4","byteOffset":24},{"bufferView":1,"componentType":5126,"count":562,"type":"VEC2","byteOffset":40},{"bufferView":0,"componentType":5123,"count":2304,"type":"SCALAR"},{"bufferView":3,"componentType":5126,"count":470,"type":"VEC3","max":[0.1242066,0.023853302,0.09595437],"min":[-0.10992673,-1.305834,-0.0186396614]},{"bufferView":3,"componentType":5126,"count":470,"type":"VEC3","byteOffset":12},{"bufferView":3,"componentType":5126,"count":470,"type":"VEC4","byteOffset":24},{"bufferView":3,"componentType":5126,"count":470,"type":"VEC2","byteOffset":40},{"bufferView":2,"componentType":5123,"count":2304,"type":"SCALAR"},{"bufferView":5,"componentType":5126,"count":1010,"type":"VEC3","max":[0.296538949,0.548794568,0.285812765],"min":[-0.296538949,-0.548794568,-0.285812765]},{"bufferView":5,"componentType":5126,"count":1010,"type":"VEC3","byteOffset":12},{"bufferView":5,"componentType":5126,"count":1010,"type":"VEC4","byteOffset":24},{"bufferView":5,"componentType":5126,"count":1010,"type":"VEC2","byteOffset":40},{"bufferView":4,"componentType":5123,"count":5664,"type":"SCALAR"}],"images":[{"name":"Steel_tex.jpg","uri":"Steel_tex.jpg","mimeType":"image/jpeg"}],"materials":[{"name":"Building_02_Legs_01_Bottom_mat1","pbrMetallicRoughness":{"baseColorFactor":[0.8745099,0.352941155,0.164705843,1],"metallicFactor":0.74,"roughnessFactor":0.72,"baseColorTexture":{"index":0,"extensions":{"KHR_texture_transform":{"offset":[0,1],"scale":[1,-1]}}}}},{"name":"Building_02_Legs_01_Mid_mat1","pbrMetallicRoughness":{"baseColorFactor":[0.329411715,0.3803921,0.521568537,1],"metallicFactor":0.74,"roughnessFactor":0.72,"baseColorTexture":{"index":0,"extensions":{"KHR_texture_transform":{"offset":[0,1],"scale":[1,-1]}}}}},{"name":"Building_02_Legs_01_mat1","pbrMetallicRoughness":{"baseColorFactor":[0.909804,0.380392134,0.168627411,1],"metallicFactor":0.74,"roughnessFactor":0.72,"baseColorTexture":{"index":0,"extensions":{"KHR_texture_transform":{"offset":[0,1],"scale":[5,-5]}}}}}],"meshes":[{"name":"Building_02_Legs_01_Bottom","primitives":[{"attributes":{"POSITION":0,"NORMAL":1,"TANGENT":2,"TEXCOORD_0":3},"indices":4,"material":0}]},{"name":"Building_02_Legs_01_Mid","primitives":[{"attributes":{"POSITION":5,"NORMAL":6,"TANGENT":7,"TEXCOORD_0":8},"indices":9,"material":1}]},{"name":"Building_02_Legs_01","primitives":[{"attributes":{"POSITION":10,"NORMAL":11,"TANGENT":12,"TEXCOORD_0":13},"indices":14,"material":2}]}],"scene":0,"scenes":[{"name":"Building_02_Leg_01(Clone)","nodes":[3]}],"textures":[{"source":0}]}