{"asset":{"version":"2.0","generator":"Unity 2021.3.22f1 glTFast 4.8.3","lastModified":"06-07-2023 12:27:24","assetVersion":"1.0","expiryToken":1},"nodes":[{"name":"Dome_Base","mesh":0,"rotation":[2.18556941E-08,0,0,1]},{"name":"Dome_Door","mesh":1,"rotation":[2.18556941E-08,0,0,1]},{"name":"Dome_Frame","mesh":2,"rotation":[2.18556941E-08,0,0,1]},{"name":"Dome_Glass","mesh":3,"rotation":[2.18556941E-08,0,0,1]},{"name":"Dome(Clone)","children":[0,1,2,3]}],"extensionsRequired":["KHR_texture_transform"],"extensionsUsed":["KHR_texture_transform"],"buffers":[{"uri":"Dome.bin","byteLength":1078628}],"bufferViews":[{"buffer":0,"byteLength":5550},{"buffer":0,"byteLength":35184,"byteOffset":5552,"byteStride":48},{"buffer":0,"byteLength":7464,"byteOffset":40736},{"buffer":0,"byteLength":45504,"byteOffset":48200,"byteStride":48},{"buffer":0,"byteLength":46572,"byteOffset":93704},{"buffer":0,"byteLength":741504,"byteOffset":140276,"byteStride":48},{"buffer":0,"byteLength":8208,"byteOffset":881780},{"buffer":0,"byteLength":188640,"byteOffset":889988,"byteStride":48}],"accessors":[{"bufferView":1,"componentType":5126,"count":733,"type":"VEC3","max":[24.8609772,0.55417037,27.1650162],"min":[-24.8609772,-0.00667405128,-24.8609772]},{"bufferView":1,"componentType":5126,"count":733,"type":"VEC3","byteOffset":12},{"bufferView":1,"componentType":5126,"count":733,"type":"VEC4","byteOffset":24},{"bufferView":1,"componentType":5126,"count":733,"type":"VEC2","byteOffset":40},{"bufferView":0,"componentType":5123,"count":2775,"type":"SCALAR"},{"bufferView":3,"componentType":5126,"count":948,"type":"VEC3","max":[2.11422873,4.80485058,25.6958065],"min":[-2.199067,-0.00664329529,23.91495]},{"bufferView":3,"componentType":5126,"count":948,"type":"VEC3","byteOffset":12},{"bufferView":3,"componentType":5126,"count":948,"type":"VEC4","byteOffset":24},{"bufferView":3,"componentType":5126,"count":948,"type":"VEC2","byteOffset":40},{"bufferView":2,"componentType":5123,"count":3732,"type":"SCALAR"},{"bufferView":5,"componentType":5126,"count":15448,"type":"VEC3","max":[24.9565277,25.0160255,24.9558411],"min":[-24.9564972,-0.006544113,-24.95652]},{"bufferView":5,"componentType":5126,"count":15448,"type":"VEC3","byteOffset":12},{"bufferView":5,"componentType":5126,"count":15448,"type":"VEC4","byteOffset":24},{"bufferView":5,"componentType":5126,"count":15448,"type":"VEC2","byteOffset":40},{"bufferView":4,"componentType":5123,"count":23286,"type":"SCALAR"},{"bufferView":7,"componentType":5126,"count":3930,"type":"VEC3","max":[24.8982067,24.9574642,24.8979378],"min":[-24.8981953,-5.722046E-05,-24.898201]},{"bufferView":7,"componentType":5126,"count":3930,"type":"VEC3","byteOffset":12},{"bufferView":7,"componentType":5126,"count":3930,"type":"VEC4","byteOffset":24},{"bufferView":7,"componentType":5126,"count":3930,"type":"VEC2","byteOffset":40},{"bufferView":6,"componentType":5123,"count":4104,"type":"SCALAR"}],"images":[{"name":"Base_albedo.jpg","uri":"Base_albedo.jpg","mimeType":"image/jpeg"}],"materials":[{"name":"Dome_Base_mat","pbrMetallicRoughness":{"baseColorFactor":[0.415094227,0.654902,0.905882359,1],"metallicFactor":0.619,"roughnessFactor":0.659000039,"baseColorTexture":{"index":0,"extensions":{"KHR_texture_transform":{"offset":[0,1],"scale":[1,-1]}}}}},{"name":"Dome_Door_mat","pbrMetallicRoughness":{"baseColorFactor":[0.414382339,0.6567007,0.9056604,1],"metallicFactor":0.619,"roughnessFactor":0.659000039}},{"name":"Dome_Frame_mat","pbrMetallicRoughness":{"baseColorFactor":[0.301886737,0.301886737,0.301886737,1],"metallicFactor":0.619,"roughnessFactor":0.45,"baseColorTexture":{"index":0,"extensions":{"KHR_texture_transform":{"offset":[0,1],"scale":[1,-1]}}}}},{"name":"Dome_Glass_mat","pbrMetallicRoughness":{"baseColorFactor":[0,0,0.8679245,0.921568632],"metallicFactor":0.702,"roughnessFactor":0.003000021,"baseColorTexture":{"index":0,"extensions":{"KHR_texture_transform":{"offset":[0,1],"scale":[1,-1]}}}},"alphaMode":"BLEND"}],"meshes":[{"name":"Dome_Base","primitives":[{"attributes":{"POSITION":0,"NORMAL":1,"TANGENT":2,"TEXCOORD_0":3},"indices":4,"material":0}]},{"name":"Dome_Door","primitives":[{"attributes":{"POSITION":5,"NORMAL":6,"TANGENT":7,"TEXCOORD_0":8},"indices":9,"material":1}]},{"name":"Dome_Frame","primitives":[{"attributes":{"POSITION":10,"NORMAL":11,"TANGENT":12,"TEXCOORD_0":13},"indices":14,"material":2}]},{"name":"Dome_Glass","primitives":[{"attributes":{"POSITION":15,"NORMAL":16,"TANGENT":17,"TEXCOORD_0":18},"indices":19,"material":3}]}],"scene":0,"scenes":[{"name":"Dome(Clone)","nodes":[4]}],"textures":[{"source":0}]}