{"asset":{"version":"2.0","generator":"Unity 2021.3.22f1 glTFast 4.8.3","lastModified":"05-06-2023 13:37:01","assetVersion":"1.0","expiryToken":1},"nodes":[{"name":"Stone_09(Clone)","mesh":0}],"extensionsRequired":["KHR_texture_transform"],"extensionsUsed":["KHR_texture_transform"],"buffers":[{"uri":"Stone_09.bin","byteLength":138216}],"bufferViews":[{"buffer":0,"byteLength":16584},{"buffer":0,"byteLength":121632,"byteOffset":16584,"byteStride":48}],"accessors":[{"bufferView":1,"componentType":5126,"count":2534,"type":"VEC3","max":[0.879732549,3.103375,0.584946632],"min":[-0.917365,-0.000754117966,-0.587004662]},{"bufferView":1,"componentType":5126,"count":2534,"type":"VEC3","byteOffset":12},{"bufferView":1,"componentType":5126,"count":2534,"type":"VEC4","byteOffset":24},{"bufferView":1,"componentType":5126,"count":2534,"type":"VEC2","byteOffset":40},{"bufferView":0,"componentType":5123,"count":1218,"type":"SCALAR"},{"bufferView":0,"componentType":5123,"count":7074,"type":"SCALAR","byteOffset":2436}],"images":[{"name":"Rock_04_Normal.png","uri":"Rock_04_Normal.png","mimeType":"image/png"},{"name":"Rock_04_Color.jpg","uri":"Rock_04_Color.jpg","mimeType":"image/jpeg"},{"name":"Rock_04_AO.jpg","uri":"Rock_04_AO.jpg","mimeType":"image/jpeg"}],"materials":[{"name":"Large_Stones_Stone_Design_06_mat","pbrMetallicRoughness":{"baseColorFactor":[0,1,1,1],"metallicFactor":0},"emissiveFactor":[0,1,1]},{"name":"Large_Stones_Stone_06_mat","pbrMetallicRoughness":{"metallicFactor":0,"baseColorTexture":{"index":1,"extensions":{"KHR_texture_transform":{"offset":[0,1],"scale":[2,-2]}}}},"normalTexture":{"index":0,"extensions":{"KHR_texture_transform":{"offset":[0,1],"scale":[1,-1]}},"scale":2},"occlusionTexture":{"index":2,"extensions":{"KHR_texture_transform":{"offset":[0,1],"scale":[2,-2]}}}}],"meshes":[{"name":"Stone_09","primitives":[{"attributes":{"POSITION":0,"NORMAL":1,"TANGENT":2,"TEXCOORD_0":3},"indices":4,"material":0},{"attributes":{"POSITION":0,"NORMAL":1,"TANGENT":2,"TEXCOORD_0":3},"indices":5,"material":1}]}],"scene":0,"scenes":[{"name":"Stone_09(Clone)","nodes":[0]}],"textures":[{"source":0},{"source":1},{"source":2}]}